<?xml version="1.0" encoding="utf-8"?>
<svg version="1.1" xmlns="http://www.w3.org/2000/svg" xmlns:xlink="http://www.w3.org/1999/xlink" x="0px" y="0px" viewBox="0 0 41 50" enable-background="new 0 0 41 50" xml:space="preserve">
  <path fill-rule="evenodd" clip-rule="evenodd" d="M36.7,50h-29c-2.3,0-4.3-1.9-4.3-4.3V34.4H0.8C0.3,34.4,0,34,0,33.6
	c0-0.4,0.3-0.8,0.8-0.8h2.7V16.4H0.8c-0.4,0-0.8-0.3-0.8-0.8c0-0.4,0.3-0.8,0.8-0.8h2.7V4.3C3.5,1.9,5.4,0,7.8,0h29
	C39.1,0,41,1.9,41,4.3v41.4C41,48.1,39.1,50,36.7,50z M39.4,4.3c0-1.5-1.2-2.8-2.7-2.8h-29c-1.5,0-2.7,1.2-2.7,2.8v10.5h2.7
	c0.4,0,0.8,0.3,0.8,0.8c0,0.4-0.3,0.8-0.8,0.8H5.1v16.4h2.7c0.4,0,0.8,0.3,0.8,0.8c0,0.4-0.3,0.8-0.8,0.8H5.1v11.3
	c0,1.5,1.2,2.8,2.7,2.8h29c1.5,0,2.7-1.2,2.7-2.8V4.3z M30.8,36.4l-0.7,0.4c-0.9,0.5-2,0.7-3,0.7c-0.3,0-0.6,0-1-0.1
	c-2.2-0.3-4.1-1.7-5.2-3.7l-6.7-12.6c-1-2-1.1-4.3-0.2-6.3c0.6-1.2,1.6-2.3,2.8-2.9l0.7-0.4c0.6-0.3,1.4-0.4,2-0.2
	c0.7,0.2,1.2,0.7,1.6,1.3l1.3,2.4c0.7,1.3,0.2,3-1.1,3.7c-0.5,0.3-0.9,0.8-1.1,1.3c-0.2,0.6-0.1,1.2,0.2,1.7l3.5,6.6
	c0.3,0.5,0.8,0.9,1.3,1.1c0.6,0.2,1.2,0.1,1.7-0.2c0.7-0.3,1.4-0.4,2.1-0.2c0.7,0.2,1.3,0.7,1.6,1.4l1.2,2.3c0.3,0.6,0.4,1.4,0.2,2
	C31.9,35.5,31.4,36.1,30.8,36.4z M30.5,33.5C30.5,33.5,30.5,33.5,30.5,33.5l-1.2-2.3c-0.3-0.6-1.1-0.8-1.6-0.5
	c-0.9,0.5-1.9,0.6-2.9,0.3c-1-0.3-1.8-1-2.2-1.9L19,22.5c-0.5-0.9-0.6-1.9-0.3-2.9c0.3-1,1-1.8,1.9-2.3c0.6-0.3,0.8-1,0.5-1.6
	l-1.3-2.4c-0.1-0.3-0.4-0.5-0.7-0.5c-0.1,0-0.2,0-0.3,0c-0.2,0-0.4,0-0.5,0.1l-0.7,0.4c-0.9,0.5-1.7,1.3-2.1,2.2
	c-0.7,1.6-0.7,3.4,0.1,4.9L22.3,33c0.8,1.5,2.3,2.6,4,2.9c1,0.2,2.1,0,3-0.5l0.7-0.4c0.3-0.1,0.5-0.4,0.5-0.7
	C30.7,34.1,30.7,33.8,30.5,33.5z" />
</svg>