<?xml version="1.0" encoding="utf-8"?>
<svg version="1.1" xmlns="http://www.w3.org/2000/svg" xmlns:xlink="http://www.w3.org/1999/xlink" x="0px" y="0px" viewBox="0 0 50 50" enable-background="new 0 0 50 50" xml:space="preserve">
  <path fill-rule="evenodd" clip-rule="evenodd" d="M25,50C11.2,50,0,38.8,0,25S11.2,0,25,0s25,11.2,25,25S38.8,50,25,50z M25,1.6
  C12.1,1.6,1.6,12.1,1.6,25S12.1,48.4,25,48.4S48.4,37.9,48.4,25S37.9,1.6,25,1.6z M33.2,33.5c-1.8,0-3.1-0.4-3.9-1.2
  c-0.6-0.6-0.6-1.2-0.6-1.4c-0.7,0.6-2.4,1.7-4.7,1.7c-4.2,0-6.3-2.7-6.3-7.9c0-3.6,2.4-7.4,6.3-7.4c2.5,0,4,1,4.7,1.6V18
  c0-0.4,0.3-0.8,0.8-0.8c0.4,0,0.8,0.4,0.8,0.8v11c0,0,0,0,0,0c0,0,0,0.1,0,0.1v1.7c0,0.3,0.5,1.1,2.9,1.1c1.6,0,3.8-0.9,3.8-8.4
  c0-4.2-1.6-11.2-12.1-11.2c-11.9,0-12.1,11.1-12.1,11.2c0,5.2,1.5,13.9,11.2,13.9c6.2,0,7.9-0.8,7.9-0.8c0.4-0.2,0.8,0,1,0.3
  c0.2,0.4,0.1,0.8-0.3,1c-0.2,0.1-2,1-8.7,1c-8.1,0-12.7-5.6-12.7-15.5c0-3.5,2.5-12.7,13.6-12.7c12.3,0,13.6,8.9,13.6,12.7
  C38.6,26.2,38.6,33.5,33.2,33.5z M28.8,21.7C28.8,21.7,28.8,21.7,28.8,21.7c0-0.4-0.5-1.1-0.7-1.3c0,0,0,0-0.1-0.1
  c0-0.1-1.2-1.5-4-1.5c-3.2,0-4.7,3.5-4.7,5.8c0,4.4,1.5,6.4,4.7,6.4c2.4,0,4-1.6,4-1.6c0.3-0.2,0.5-0.5,0.7-0.6L28.8,21.7z" />
</svg>