<?xml version="1.0" encoding="utf-8"?>
<!-- Generator: Adobe Illustrator 23.0.2, SVG Export Plug-In . SVG Version: 6.00 Build 0)  -->
<svg version="1.1" id="Слой_1" xmlns="http://www.w3.org/2000/svg" xmlns:xlink="http://www.w3.org/1999/xlink" x="0px" y="0px"
	 viewBox="0 0 50 50" enable-background="new 0 0 50 50" xml:space="preserve">
<path fill="#333333" d="M0,0v41.7h28.1c0.1,0.5,0.2,1,0.2,1.5v0.1h-1.7V50H45v-6.7h-1.7l0-0.7c0-0.3,0.1-0.7,0.2-1H50V0H0z
	 M43.3,48.3h-15V45h15V48.3z M30,43.3v-0.1c0-1.2-0.3-2.4-0.9-3.5l-0.9-1.6l-2.9-7.8c0,0,0-0.1-0.1-0.1c-0.2-0.3-0.1-0.7,0.1-0.9
	c0.2-0.3,0.5-0.4,0.9-0.3c0.2,0.1,0.4,0.2,0.5,0.4l1.8,3.1c0.4,0.7,1.1,1,1.9,0.8c0.7-0.2,1.2-0.9,1.2-1.6V20c0-0.5,0.4-0.8,0.8-0.8
	s0.8,0.4,0.8,0.8v7.5c0,0.4,0.3,0.8,0.8,0.8l6.9,0.6c1.3,0.1,2.3,1.2,2.3,2.5v6.8c0,0.5-0.1,1-0.4,1.4l-0.6,0.8
	c-0.5,0.7-0.7,1.5-0.7,2.3l0,0.7H30z M48.3,40h-3.8c0.3-0.6,0.4-1.2,0.4-1.8v-6.8c0-2.2-1.7-4-3.8-4.2L35,26.7V20
	c0-1.4-1.1-2.5-2.5-2.5S30,18.6,30,20v11.5l-1.8-3.1c-0.7-1.2-2.2-1.6-3.4-0.9c-1.2,0.7-1.6,2.1-1,3.3l2.9,7.8c0,0,0,0.1,0,0.1
	l0.6,1.2H1.7V8.3h46.7V40z M1.7,6.7v-5h46.7v5H1.7z"/>
<path fill="#333333" d="M3.3,3.3H5V5H3.3V3.3z"/>
<path fill="#333333" d="M6.7,3.3h1.7V5H6.7V3.3z"/>
<path fill="#333333" d="M10,3.3h1.7V5H10V3.3z"/>
<path fill="#333333" d="M15,15.1l2.2-1.9l-1.1-1.3l-1.2,1v-1.2H5v10h10V15.1z M6.7,20v-6.7h6.7v1L10,17.2l-1.9-1.9l-1.2,1.2l3,3
	l3.4-2.9V20H6.7z"/>
<path fill="#333333" d="M15,28.4l2.2-1.9l-1.1-1.3l-1.2,1V25H5v10h10V28.4z M6.7,33.3v-6.7h6.7v1L10,30.5l-1.9-1.9l-1.2,1.2l3,3
	l3.4-2.9v3.5H6.7z"/>
<path fill="#333333" d="M25,11.7h3.3v1.7H25V11.7z"/>
<path fill="#333333" d="M30,11.7h15v1.7H30V11.7z"/>
<path fill="#333333" d="M25,15h20v1.7H25V15z"/>
<path fill="#333333" d="M25,19.2h3.3v1.7H25V19.2z"/>
<path fill="#333333" d="M36.7,19.2H45v1.7h-8.3V19.2z"/>
<path fill="#333333" d="M36.7,22.5H45v1.7h-8.3V22.5z"/>
<path fill="#333333" d="M25,22.5h3.3v1.7H25V22.5z"/>
</svg>
