<?xml version="1.0" encoding="utf-8"?>
<!-- Generator: Adobe Illustrator 23.0.2, SVG Export Plug-In . SVG Version: 6.00 Build 0)  -->
<svg version="1.1" id="Слой_1" xmlns="http://www.w3.org/2000/svg" xmlns:xlink="http://www.w3.org/1999/xlink" x="0px" y="0px"
	 viewBox="0 0 52 52" enable-background="new 0 0 52 52" xml:space="preserve">
<path fill="#333333" d="M48.4,39.4L40,31l-1.1,1.1c-0.3,0.3-0.8,0.3-1.1,0c-0.1-0.1-0.2-0.4-0.2-0.6c0-0.2,0.1-0.4,0.2-0.6l1.7-1.7
	L36,25.9l-3.4,3.4l-1.7-1.7l9.6-9.6c0.4,0.1,0.7,0.1,1.1,0.1c2.7,0,5.3-1.4,6.7-3.7c1.5-2.3,1.6-5.2,0.4-7.7l-0.5-1L43,10.9
	l-1.9-0.4l-0.4-1.9L46,3.4L45,3c-2.6-1.3-5.8-1-8.1,0.8c-2.4,1.7-3.6,4.6-3.2,7.5l-9.6,9.6l-12-12l-0.6-3L5.1,2L2,5.1l3.9,6.5
	l2.9,0.6l12,12l-9.5,9.5C7.9,33.2,4.6,35,3,38c-1.5,3.1-0.9,6.7,1.5,9.2c2.4,2.4,6.1,3,9.2,1.5c3.1-1.5,4.8-4.8,4.3-8.2l9.5-9.5
	l1.7,1.7L25.9,36l3.4,3.4l1.7-1.7c0.2-0.2,0.6-0.3,0.9-0.2c0.3,0.1,0.5,0.4,0.5,0.7c0,0.2-0.1,0.4-0.2,0.6L31,39.9l8.4,8.4
	c2.2,2.2,5.7,2.2,7.9,0l1.1-1.1C50.5,45.1,50.5,41.6,48.4,39.4z M37.1,5.6C38.7,4,41,3.4,43.2,4L39,8.2l0.7,3.7l3.7,0.7l4.2-4.2
	c0.8,3-0.7,6.1-3.5,7.4c-2.8,1.3-6.1,0.4-7.9-2.1C34.6,11.2,34.9,7.8,37.1,5.6z M9.6,10.7l-2.7-0.5L4,5.4L5.4,4l4.7,2.8l0.6,2.7
	L23,21.9L21.9,23L9.6,10.7z M14.6,46c-2,2-5.2,2.4-7.7,1c-2.5-1.4-3.7-4.4-3-7.1c0.7-2.8,3.3-4.7,6.1-4.7c0.4,0,0.8,0,1.2,0.1
	c2.3,0.5,4.2,2.1,4.8,4.4C16.9,42,16.3,44.4,14.6,46L14.6,46z M17.5,38.7c-0.1-0.1-0.1-0.3-0.2-0.4c-0.8-1.8-2.3-3.3-4.1-4
	c-0.1,0-0.1-0.1-0.2-0.1L34.2,13c0,0.1,0.1,0.1,0.1,0.2c0.8,1.8,2.2,3.3,4,4.1c0.1,0.1,0.2,0.1,0.4,0.2L17.5,38.7z M28.7,29.8
	l1.1-1.1l1.7,1.7l-1.1,1.1L28.7,29.8z M47.3,46.1l-1.1,1.1c-1.6,1.5-4.1,1.5-5.6,0L33.2,40c0.6-0.6,0.9-1.5,0.6-2.3
	c-0.2-0.8-0.9-1.5-1.7-1.7c-0.8-0.2-1.7,0-2.3,0.6l-0.6,0.6L28.2,36l7.9-7.9l1.1,1.1l-0.6,0.6c-0.9,0.9-0.9,2.4,0,3.4
	c0.9,0.9,2.4,0.9,3.4,0l7.3,7.3C48.8,42.1,48.8,44.6,47.3,46.1z"/>
<path fill="#333333" d="M9,37.1l-3.2,3.2l1.2,4.4l4.4,1.2l3.2-3.2l-1.2-4.4L9,37.1z M10.9,44.2l-2.7-0.7l-0.7-2.7l1.9-1.9l2.7,0.7
	l0.7,2.7L10.9,44.2z"/>
<path fill="#333333" d="M32.6,18l1.1-1.1l1.1,1.1l-1.1,1.1L32.6,18z"/>
<path fill="#333333" d="M16.9,33.7l14.6-14.6l1.1,1.1L18,34.8L16.9,33.7z"/>
<path fill="#333333" d="M32.7,33.8l1.1-1.1l1.1,1.1l-1.1,1.1L32.7,33.8z"/>
<path fill="#333333" d="M34.9,36l1.1-1.1l9.5,9.5l-1.1,1.1L34.9,36z"/>
</svg>
