<?xml version="1.0" encoding="utf-8"?>
<!-- Generator: Adobe Illustrator 23.0.2, SVG Export Plug-In . SVG Version: 6.00 Build 0)  -->
<svg version="1.1" id="Capa_1" xmlns="http://www.w3.org/2000/svg" xmlns:xlink="http://www.w3.org/1999/xlink" x="0px" y="0px"
	 viewBox="0 0 65 65" enable-background="new 0 0 65 65" xml:space="preserve">
<path fill="#E4E4E4" d="M44.6,32.5H65C65,14.6,50.4,0,32.5,0C41.5,0,44.6,16.3,44.6,32.5z"/>
<path fill="#F3F4F5" d="M0,32.5h46C46,16.3,41.5,0,32.5,0C14.6,0,0,14.6,0,32.5z"/>
<path fill="#D84141" d="M43.9,32.5c0,16.2-2.4,32.5-11.4,32.5C50.4,65,65,50.4,65,32.5H43.9z"/>
<path fill="#DC4D4E" d="M46,32.5H0C0,50.4,14.6,65,32.5,65C41.5,65,46,48.8,46,32.5z"/>
</svg>
