<?xml version="1.0" encoding="utf-8"?>
<!-- Generator: Adobe Illustrator 23.0.2, SVG Export Plug-In . SVG Version: 6.00 Build 0)  -->
<svg version="1.1" id="Capa_1" xmlns="http://www.w3.org/2000/svg" xmlns:xlink="http://www.w3.org/1999/xlink" x="0px" y="0px"
	 viewBox="0 0 62.2 41" enable-background="new 0 0 62.2 41" xml:space="preserve">
<g>
	<g>
		<path fill="#DEE0E0" d="M62.2,10.6c0-0.9-0.3-1.9-0.9-2.7l-4.9-6.3C55.6,0.5,54.3,0,53,0c-0.7,0-1.5,0.2-2.2,0.6l-4.8,3
			c-0.5,0.3-1.4,0.5-2.2,0.5c-0.7,0-1.3-0.1-1.7-0.3l-4.7-2.3C36.7,1.2,35.8,1,35,1c-1.2,0-2.5,0.3-3.5,1L31,2.4
			c-0.4-0.2-1.1-0.6-1.9-0.9c-0.9-0.4-2-0.6-3.1-0.6c-1,0-2,0.2-2.8,0.5L20,2.7c-0.5,0.2-1.4,0.4-2.2,0.4c-0.8,0-1.7-0.1-2.2-0.4
			l-3.2-1.4C11.9,1.1,11.3,1,10.6,1C9.9,1,9.2,1.1,8.6,1.4C7.9,1.7,7.3,2.1,6.8,2.6L1,9.1c-0.6,0.7-1,1.6-1,2.5
			c0,1.1,0.5,2.1,1.3,2.9l5.4,4.6l-2.6,2.7c-0.7,0.7-1.1,1.7-1.1,2.7c0,1,0.4,2,1.2,2.8l0.5,0.5c0.5,0.5,1.1,0.8,1.7,0.9
			c-0.3,0.6-0.5,1.2-0.5,1.8c0,1,0.4,2,1.2,2.8l0,0l0.5,0.5c0.7,0.7,1.7,1.1,2.7,1.1c0.5,0,1-0.1,1.5-0.3c0.2,0.7,0.5,1.3,1.1,1.9
			l0.5,0.5c0.7,0.7,1.7,1.1,2.7,1.1c0.7,0,1.5-0.2,2.1-0.6c0.2,0.6,0.5,1.2,1,1.7l0.5,0.5c0.7,0.7,1.7,1.1,2.7,1.1
			c1,0,2-0.4,2.8-1.2l2.3-2.4l3.1,2.9c0.7,0.7,1.7,1,2.6,1c1,0,2.1-0.4,2.8-1.2l0.5-0.5c0.4-0.5,0.7-1,0.9-1.6l1.2,1.1
			c0.7,0.7,1.7,1,2.6,1c1,0,2.1-0.4,2.8-1.2l0.5-0.5c0.6-0.6,0.9-1.4,1-2.1c0.3,0.1,0.6,0.1,1,0.1c1,0,2.1-0.4,2.8-1.2l0.5-0.5
			c0.7-0.7,1-1.7,1-2.6c0-0.3,0-0.6-0.1-0.9c0.9-0.1,1.7-0.5,2.3-1.2l0.5-0.5c0.7-0.7,1-1.7,1-2.6c0-1-0.4-2.1-1.2-2.8l-0.9-0.9
			l8.4-9.2C61.9,12.7,62.2,11.6,62.2,10.6z M7.5,26.8c-0.4,0-0.9-0.2-1.2-0.5l-0.5-0.5c-0.4-0.3-0.5-0.8-0.5-1.3
			c0-0.4,0.2-0.9,0.5-1.2l5.3-5.5c0.3-0.4,0.8-0.5,1.3-0.5c0.4,0,0.9,0.2,1.2,0.5l0.5,0.5c0,0,0.5,0.8,0.5,1.3c0,0.4-0.1,0.7-0.3,1
			c0,0-5.7,6-5.7,6C8.3,26.7,7.9,26.8,7.5,26.8z M11.8,32.3c-0.3,0.4-0.8,0.5-1.3,0.5c-0.4,0-0.9-0.2-1.2-0.5l-0.5-0.5l0,0
			c-0.4-0.3-0.5-0.8-0.5-1.3c0-0.4,0.2-0.9,0.5-1.2c0,0,7.1-7.3,7.1-7.4c0.3-0.3,0.8-0.5,1.2-0.5c0.4,0,0.9,0.2,1.2,0.5l0.5,0.5
			c0.4,0.3,0.5,0.8,0.5,1.3c0,0.4-0.2,0.9-0.5,1.2L11.8,32.3z M17.5,35.5c-0.3,0.4-0.8,0.5-1.3,0.5c-0.4,0-0.9-0.2-1.2-0.5L14.5,35
			c-0.4-0.3-0.5-0.8-0.5-1.3c0-0.4,0.1-0.8,0.4-1.1l4.9-5.1c0.3-0.3,0.7-0.5,1.2-0.5c0.4,0,0.9,0.2,1.2,0.5l0.5,0.5
			c0.4,0.3,0.5,0.8,0.5,1.3c0,0.4-0.2,0.9-0.5,1.2L17.5,35.5z M26.9,34.9l-3,3.1c-0.3,0.4-0.8,0.5-1.3,0.5c-0.4,0-0.9-0.2-1.2-0.5
			l-0.5-0.5c-0.4-0.3-0.5-0.8-0.5-1.3c0-0.4,0.2-0.9,0.5-1.2l3-3.1c0.3-0.4,0.8-0.5,1.3-0.5c0.4,0,0.9,0.2,1.2,0.5l0.5,0.5
			c0.4,0.3,0.5,0.8,0.5,1.3C27.4,34.2,27.2,34.6,26.9,34.9z M52.8,26.5c0,0.4-0.2,0.9-0.5,1.2l-0.5,0.5c-0.3,0.4-0.8,0.6-1.3,0.6
			c-0.4,0-0.9-0.2-1.2-0.5L41,20.6l-1.4,1.5l8.9,8.3c0.4,0.3,0.6,0.8,0.6,1.3c0,0.4-0.2,0.9-0.5,1.2l-0.5,0.5
			c-0.3,0.4-0.8,0.6-1.3,0.6c-0.4,0-0.9-0.2-1.2-0.5l-8.3-7.7l-1.4,1.5l7.4,6.8c0.4,0.3,0.5,0.8,0.5,1.3c0,0.4-0.2,0.9-0.5,1.2
			l-0.5,0.5c-0.3,0.4-0.8,0.6-1.3,0.6c-0.4,0-0.9-0.2-1.2-0.5l-7.4-6.8h0l0,0L31.5,32l0,0l0,0l3.7,3.4c0.3,0.3,0.5,0.8,0.5,1.2
			c0,0.4-0.2,0.9-0.5,1.2l-0.5,0.5c-0.3,0.4-0.8,0.6-1.3,0.6c-0.4,0-0.9-0.2-1.2-0.5l-3.2-3c0.3-0.5,0.4-1.1,0.4-1.7
			c0-1-0.4-2-1.2-2.8l-0.5-0.5c-0.7-0.7-1.7-1.1-2.7-1.1c-0.1,0-0.1,0-0.2,0c0,0,0,0,0-0.1c0-1-1.2-2.8-1.2-2.8L23.1,26
			c-0.6-0.5-1.2-0.9-2-1c0.1-0.4,0.2-0.8,0.2-1.3c0-1-0.4-2-1.2-2.8l-0.5-0.5C19,19.8,18,19.4,17,19.4c-0.1,0-0.2,0-0.3,0
			c0-1-0.4-1.9-1.2-2.7v0L15,16.3c-0.7-0.7-1.7-1.1-2.7-1.1c-1,0-2,0.4-2.8,1.2l-1.2,1.3L2.7,13c-0.4-0.3-0.6-0.8-0.6-1.3
			c0-0.4,0.1-0.8,0.4-1.1L8.4,4c0.2-0.3,0.6-0.5,1-0.7c0.4-0.2,0.9-0.3,1.3-0.3c0.4,0,0.7,0.1,1,0.2l3.2,1.4c0.9,0.4,2,0.5,3,0.5
			c1.1,0,2.1-0.2,3-0.5l3.2-1.4c0.5-0.2,1.2-0.3,2-0.3c0.8,0,1.6,0.2,2.1,0.4c0.3,0.2,0.6,0.3,0.9,0.4l-3.3,2.3
			c-1.1,0.7-1.6,1.9-1.6,3.1c0,0.8,0.2,1.6,0.8,2.3l0,0l0.4,0.6c0.8,1.1,2.1,1.7,3.4,1.7c0.7,0,1.5-0.2,2.1-0.6l2-1.2
			c0.4-0.2,1-0.4,1.6-0.4c0.7,0,1.5,0.2,1.9,0.5l5.4,3.9c1.2,0.9,3.2,2.5,4.3,3.5l6.3,5.8C52.6,25.5,52.8,26,52.8,26.5z M59.5,12.1
			l-8.3,9.2l-3.8-3.5c-1.2-1.1-3.1-2.7-4.5-3.6l-5.4-3.9c-0.9-0.6-2-0.9-3.1-0.9c-0.9,0-1.9,0.2-2.7,0.7l-2,1.2
			c-0.3,0.2-0.7,0.3-1,0.3c-0.7,0-1.3-0.3-1.7-0.8l-0.4-0.6l0,0c-0.2-0.3-0.3-0.7-0.3-1c0-0.5,0.2-1,0.7-1.4l5.8-4.1
			c0.5-0.4,1.4-0.6,2.2-0.6c0.6,0,1.1,0.1,1.5,0.3l4.7,2.3c0.8,0.4,1.7,0.5,2.6,0.5c1.2,0,2.4-0.3,3.3-0.9l4.8-3
			c0.3-0.2,0.7-0.3,1.1-0.3c0.6,0,1.3,0.3,1.7,0.8l4.9,6.3c0.3,0.4,0.4,0.9,0.4,1.4C60.1,11.2,59.9,11.8,59.5,12.1z"/>
	</g>
</g>
</svg>
