<?xml version="1.0" encoding="utf-8"?>
<!-- Generator: Adobe Illustrator 23.0.2, SVG Export Plug-In . SVG Version: 6.00 Build 0)  -->
<svg version="1.1" id="Слой_1" xmlns="http://www.w3.org/2000/svg" xmlns:xlink="http://www.w3.org/1999/xlink" x="0px" y="0px"
	 viewBox="0 0 45 45" enable-background="new 0 0 45 45" xml:space="preserve">
<path fill="#333333" d="M10.9,18.9h23.2v1.5H10.9V18.9z"/>
<path fill="#333333" d="M24.7,21.8h9.4v1.5h-9.4V21.8z"/>
<path fill="#333333" d="M10.9,21.8h9.4v1.5h-9.4V21.8z"/>
<path fill="#333333" d="M24.7,16h9.4v1.5h-9.4V16z"/>
<path fill="#333333" d="M10.9,16h9.4v1.5h-9.4V16z"/>
<path fill="#333333" d="M10.9,13.1h23.2v1.5H10.9V13.1z"/>
<path fill="#333333" d="M38.5,16.8v-3.8c0-2.4-2-4.4-4.4-4.4v1.5c1.6,0,2.9,1.3,2.9,2.9v3.8c0,1.3,0.4,2.5,1.2,3.5
	c-0.8,1-1.2,2.2-1.2,3.5v3.8c0,1.6-1.3,2.9-2.9,2.9v1.5c2.4,0,4.4-2,4.4-4.4v-3.8c0-1.1,0.4-2.2,1.2-3l0.5-0.5l-0.5-0.5
	C38.9,19,38.5,17.9,38.5,16.8z"/>
<path fill="#333333" d="M8,27.6v-3.8c0-1.3-0.4-2.5-1.2-3.5c0.8-1,1.2-2.2,1.2-3.5v-3.8c0-1.6,1.3-2.9,2.9-2.9V8.7
	c-2.4,0-4.4,2-4.4,4.4v3.8c0,1.1-0.4,2.2-1.2,3l-0.5,0.5l0.5,0.5c0.8,0.8,1.2,1.9,1.2,3v3.8c0,2.4,2,4.4,4.4,4.4v-1.5
	C9.3,30.5,8,29.2,8,27.6z"/>
<path fill="#333333" d="M22.5,31.9c-1.6,0-2.9,1.3-2.9,2.9c0,1.6,1.3,2.9,2.9,2.9s2.9-1.3,2.9-2.9C25.4,33.2,24.1,31.9,22.5,31.9z
	 M22.5,36.3c-0.8,0-1.5-0.7-1.5-1.5c0-0.8,0.7-1.5,1.5-1.5S24,34,24,34.8C24,35.6,23.3,36.3,22.5,36.3z"/>
<path fill="#333333" d="M22.5,29c-1,0-1.9,0.2-2.8,0.7l0.7,1.3c0.6-0.3,1.3-0.5,2.1-0.5c2.4,0,4.4,2,4.4,4.4c0,0.7-0.2,1.4-0.5,2.1
	l1.3,0.7c0.5-0.8,0.7-1.8,0.7-2.8C28.3,31.6,25.7,29,22.5,29z"/>
<path fill="#333333" d="M22.5,39.2c-2.4,0-4.4-2-4.4-4.4c0-0.7,0.2-1.4,0.5-2.1l-1.3-0.7c-0.5,0.8-0.7,1.8-0.7,2.8
	c0,3.2,2.6,5.8,5.8,5.8c1,0,1.9-0.2,2.8-0.7l-0.7-1.3C23.9,39,23.2,39.2,22.5,39.2z"/>
<path fill="#333333" d="M45,2.2C45,1,44,0,42.8,0H2.2C1,0,0,1,0,2.2v33.4h12.3v1.3l1.8,0.5c0.2,0.6,0.4,1.1,0.7,1.7l-1,1.6l2.9,2.9
	l1.6-1c0.5,0.3,1.1,0.5,1.7,0.7l0.5,1.8h4l0.5-1.8c0.6-0.2,1.1-0.4,1.7-0.7l1.6,1l2.9-2.9l-1-1.6c0.3-0.5,0.5-1.1,0.7-1.7l1.8-0.5
	v-1.3H45V2.2z M2.2,1.5h40.6c0.4,0,0.7,0.3,0.7,0.7v3.6H1.5V2.2C1.5,1.8,1.8,1.5,2.2,1.5z M31.2,35.7l-1.6,0.4l-0.1,0.4
	c-0.2,0.7-0.5,1.4-0.9,2.1L28.5,39l0.8,1.4L28,41.6l-1.4-0.8L26.3,41c-0.6,0.4-1.3,0.7-2.1,0.9L23.8,42l-0.4,1.6h-1.8L21.2,42
	l-0.4-0.1c-0.7-0.2-1.4-0.5-2.1-0.9l-0.4-0.2L17,41.6l-1.3-1.3l0.8-1.4l-0.2-0.4c-0.4-0.6-0.7-1.3-0.9-2.1l-0.1-0.4l-1.6-0.4V34
	l1.6-0.4l0.1-0.4c0.2-0.7,0.5-1.4,0.9-2.1l0.2-0.4l-0.8-1.4l1.3-1.3l1.4,0.8l0.4-0.2c0.6-0.4,1.3-0.7,2.1-0.9l0.4-0.1l0.4-1.6h1.8
	l0.4,1.6l0.4,0.1c0.7,0.2,1.4,0.5,2.1,0.9l0.4,0.2l1.4-0.8l1.3,1.3l-0.8,1.4l0.2,0.4c0.4,0.6,0.7,1.3,0.9,2.1l0.1,0.4l1.6,0.4V35.7z
	 M32.7,34.1v-1.3l-1.8-0.5c-0.2-0.6-0.4-1.1-0.7-1.7l1-1.6l-2.9-2.9l-1.6,1c-0.5-0.3-1.1-0.5-1.7-0.7l-0.5-1.8h-4L20,26.5
	c-0.6,0.2-1.1,0.4-1.7,0.7l-1.6-1l-2.9,2.9l1,1.6c-0.3,0.5-0.5,1.1-0.7,1.7l-1.8,0.5v1.3H1.5V7.3h42.1v26.9H32.7z"/>
<path fill="#333333" d="M2.9,2.9h1.5v1.5H2.9V2.9z"/>
<path fill="#333333" d="M5.8,2.9h1.5v1.5H5.8V2.9z"/>
<path fill="#333333" d="M8.7,2.9h1.5v1.5H8.7V2.9z"/>
</svg>
