<?xml version="1.0" encoding="utf-8"?>
<!-- Generator: Adobe Illustrator 23.0.2, SVG Export Plug-In . SVG Version: 6.00 Build 0)  -->
<svg version="1.1" id="Слой_1" xmlns="http://www.w3.org/2000/svg" xmlns:xlink="http://www.w3.org/1999/xlink" x="0px" y="0px"
	 viewBox="0 0 45 48.5" enable-background="new 0 0 45 48.5" xml:space="preserve">
<path fill="#333333" d="M44.3,18.6l-4.2-0.4c-0.4-1.8-1.2-3.5-2.1-5l2.7-3.2c0.3-0.3,0.2-0.8,0-1.1l-4.5-4.5c-0.3-0.3-0.8-0.3-1.1,0
	L31.8,7c-1.6-1-3.3-1.7-5-2.1l-0.4-4.2C26.3,0.3,26,0,25.6,0h-6.2c-0.4,0-0.7,0.3-0.8,0.7l-0.4,4.2c-1.8,0.5-3.5,1.2-5,2.1L10,4.4
	c-0.3-0.3-0.8-0.2-1.1,0L4.4,8.9c-0.3,0.3-0.3,0.8,0,1.1L7,13.2c-1,1.6-1.7,3.3-2.1,5l-4.2,0.4C0.3,18.7,0,19,0,19.4v6.4
	c0,0.4,0.3,0.7,0.7,0.8L4.9,27c0.5,1.8,1.2,3.5,2.1,5l-2.7,3.2c-0.3,0.3-0.2,0.8,0.1,1.1l3.4,3c0.2,0.1,0.4,0.2,0.6,0.2
	c0.2,0,0.4-0.1,0.6-0.3l4.9-7.1c0.2-0.3,0.2-0.7-0.1-1c-4.7-4.7-4.7-12.4,0-17.1s12.4-4.7,17.1,0s4.7,12.4,0,17.1
	c-0.3,0.3-0.3,0.7-0.1,1l5.1,7.1c0.1,0.2,0.3,0.3,0.6,0.3s0.4,0,0.6-0.2l3.4-3c0.3-0.3,0.4-0.8,0.1-1.1L38,32.1c1-1.6,1.7-3.3,2.1-5
	l4.2-0.4c0.4,0,0.7-0.4,0.7-0.8v-6.4C45,19,44.7,18.7,44.3,18.6z M43.4,25.1l-4,0.4c-0.3,0-0.6,0.3-0.7,0.6c-0.4,2-1.2,3.9-2.3,5.6
	c-0.2,0.3-0.2,0.7,0.1,0.9l2.5,3.1l-2.2,1.9l-4.2-5.8c4.9-5.4,4.7-13.7-0.5-18.9c-5.3-5.3-14-5.3-19.3,0c-5.2,5.2-5.3,13.5-0.5,18.9
	l-4,5.8l-2.2-1.9l2.5-3.1c0.2-0.3,0.2-0.6,0.1-0.9c-1.1-1.7-1.9-3.6-2.3-5.6c-0.1-0.3-0.4-0.6-0.7-0.6l-4-0.4v-5l4-0.4
	c0.3,0,0.6-0.3,0.7-0.6c0.4-2,1.2-3.9,2.3-5.6c0.2-0.3,0.2-0.7-0.1-0.9L6,9.5L9.5,6l3.1,2.6c0.3,0.2,0.6,0.2,0.9,0.1
	c1.7-1.1,3.6-1.9,5.6-2.3c0.3-0.1,0.6-0.4,0.6-0.7l0.4-4h4.7l0.4,4c0,0.3,0.3,0.6,0.6,0.7c2,0.4,3.9,1.2,5.6,2.3
	c0.3,0.2,0.7,0.2,0.9-0.1L35.5,6L39,9.5l-2.6,3.1c-0.2,0.3-0.2,0.7-0.1,0.9c1.1,1.7,1.9,3.6,2.3,5.6c0.1,0.3,0.4,0.6,0.7,0.6l4,0.4
	V25.1z"/>
<path fill="#333333" d="M25.3,36.6v-12c2-1.2,3.3-3.3,3.3-5.6c0-3.1-1.8-5.3-4.7-6c-0.2-0.1-0.5,0-0.7,0.2c-0.2,0.2-0.3,0.4-0.3,0.7
	l0.3,3.4c-0.7,0.3-1.5,0.3-2.1,0l0.3-3.4c0-0.3-0.1-0.5-0.3-0.7c-0.2-0.2-0.5-0.2-0.7-0.1c-2.7,0.8-4.4,3.1-4.4,6.1
	c0,2.7,1.4,4.9,3.8,5.9v12c-1.7,1-3.3,3-3.3,5.6c0,3.1,1.7,5.3,4.7,6.1c0.2,0.1,0.5,0,0.7-0.2c0.2-0.2,0.3-0.4,0.3-0.7l-0.3-3.4
	c0.7-0.3,1.5-0.3,2.1,0l-0.3,3.4c0,0.3,0.1,0.5,0.3,0.7c0.2,0.2,0.5,0.2,0.7,0.1c2.7-0.8,4.4-3.1,4.4-6
	C29.1,39.7,27.6,37.5,25.3,36.6z M25.4,46.5l0.2-2.5c0-0.3-0.1-0.5-0.3-0.7l0,0c-1.4-1.1-3.3-1-4.7,0c-0.2,0.2-0.3,0.4-0.3,0.7
	l0.2,2.6c-1.5-0.8-2.4-2.2-2.4-4.1c0-2.1,1.4-3.7,2.8-4.4c0.3-0.1,0.5-0.4,0.5-0.7v-13c0-0.3-0.2-0.7-0.6-0.8
	c-2-0.6-3.2-2.3-3.2-4.5c0-1.8,0.8-3.2,2.1-4.1l-0.2,2.5c0,0.3,0.1,0.5,0.3,0.7l0,0c1.4,1.1,3.3,1,4.7,0c0,0,0,0,0,0
	c0.2-0.2,0.3-0.4,0.3-0.7l-0.2-2.6c1.6,0.7,2.4,2.2,2.4,4.1c0,1.8-1.2,3.6-2.9,4.4c-0.3,0.1-0.5,0.4-0.5,0.7v13.1
	c0,0.3,0.2,0.7,0.6,0.8c2,0.6,3.2,2.3,3.2,4.5C27.5,44.2,26.7,45.7,25.4,46.5L25.4,46.5z"/>
</svg>
