<?xml version="1.0" encoding="utf-8"?>
<!-- Generator: Adobe Illustrator 23.0.2, SVG Export Plug-In . SVG Version: 6.00 Build 0)  -->
<svg version="1.1" id="Слой_1" xmlns="http://www.w3.org/2000/svg" xmlns:xlink="http://www.w3.org/1999/xlink" x="0px" y="0px"
	 viewBox="0 0 45 45.1" enable-background="new 0 0 45 45.1" xml:space="preserve">
<path fill="#333333" d="M18.1,29.8v0.4c0,1.8,1.5,3.3,3.3,3.3h0.4v1.5h1.5v-1.5h0.4c1.8,0,3.3-1.5,3.3-3.3s-1.5-3.3-3.3-3.3h-2.2
	c-1,0-1.8-0.8-1.8-1.8c0-1,0.8-1.8,1.8-1.8h2.2c1,0,1.8,0.8,1.8,1.8v0.4h1.5V25c0-1.8-1.5-3.3-3.3-3.3h-0.4v-1.5h-1.5v1.5h-0.4
	c-1.8,0-3.3,1.5-3.3,3.3c0,1.8,1.5,3.3,3.3,3.3h2.2c1,0,1.8,0.8,1.8,1.8s-0.8,1.8-1.8,1.8h-2.2c-1,0-1.8-0.8-1.8-1.8v-0.4H18.1z"/>
<path fill="#333333" d="M15.7,18.2l0.8,1.2l6-4.1l10.1,6.9c-0.3,4.2-1.8,8.2-4.1,11.7l1.2,0.8c2.6-3.8,4.1-8.3,4.4-12.9l0-0.4
	l-11.6-7.9L15.7,18.2z"/>
<path fill="#333333" d="M22.5,40c-5.8-4.1-9.5-10.7-10.1-17.8l4.8-3.3l-0.8-1.2l-5.5,3.7l0,0.4c0.5,7.9,4.6,15.2,11.2,19.6l0.4,0.3
	l0.4-0.3c2.2-1.5,5.5-5.2,7.2-7.3L29,33.3C27.5,35.2,24.4,38.6,22.5,40z"/>
<path fill="#333333" d="M36.7,26.9h4.1c0.3,0.8,1.1,1.5,2,1.5c1.2,0,2.2-1,2.2-2.2c0-1.2-1-2.2-2.2-2.2c-0.9,0-1.7,0.6-2,1.5h-3.5
	l-0.7-0.7c0.2-1,0.3-2,0.3-3h2.2c3.2,0,5.8-2.6,5.8-5.8c0-2.7-1.9-5-4.4-5.6c0-0.1,0-0.1,0-0.2c0-4.8-3.9-8.7-8.7-8.7
	c-2.5,0-4.9,1.1-6.5,2.9c-2-2.7-5.2-4.4-8.7-4.4C10.9,0,6.2,4.5,5.8,10.2c0,0,0,0,0,0C2.6,10.2,0,12.8,0,16s2.6,5.8,5.8,5.8H8
	c0.1,1,0.2,2,0.3,3l-0.7,0.7H4.2c-0.3-0.8-1.1-1.5-2-1.5C1,24,0,24.9,0,26.1c0,1.2,1,2.2,2.2,2.2c0.9,0,1.7-0.6,2-1.5h4.1l0.4-0.4
	c0.4,1.6,0.9,3.2,1.5,4.7H4.2c-0.3-0.8-1.1-1.5-2-1.5c-1.2,0-2.2,1-2.2,2.2c0,1.2,1,2.2,2.2,2.2c0.9,0,1.7-0.6,2-1.5h6.6
	c0.6,1.3,1.3,2.5,2.1,3.6H9.3c-0.3-0.8-1.1-1.5-2-1.5c-1.2,0-2.2,1-2.2,2.2s1,2.2,2.2,2.2c0.9,0,1.7-0.6,2-1.5H14
	c0.9,1.2,1.9,2.3,3,3.3l-0.7,1H4.2c-0.3-0.8-1.1-1.5-2-1.5c-1.2,0-2.2,1-2.2,2.2C0,44,1,45,2.2,45c0.9,0,1.7-0.6,2-1.5h12.9l1-1.5
	c1.3,1.1,2.6,2,4,2.9l0.4,0.2l0.4-0.2c1.4-0.8,2.8-1.8,4-2.9l1,1.5h12.9c0.3,0.8,1.1,1.5,2,1.5c1.2,0,2.2-1,2.2-2.2
	c0-1.2-1-2.2-2.2-2.2c-0.9,0-1.7,0.6-2,1.5H28.7l-0.7-1c1.1-1,2.1-2.1,3-3.3h4.7c0.3,0.8,1.1,1.5,2,1.5c1.2,0,2.2-1,2.2-2.2
	s-1-2.2-2.2-2.2c-0.9,0-1.7,0.6-2,1.5h-3.6c0.8-1.2,1.5-2.4,2.1-3.6h6.6c0.3,0.8,1.1,1.5,2,1.5c1.2,0,2.2-1,2.2-2.2
	c0-1.2-1-2.2-2.2-2.2c-0.9,0-1.7,0.6-2,1.5h-5.9c0.6-1.5,1.1-3.1,1.5-4.7L36.7,26.9z M42.8,25.4c0.4,0,0.7,0.3,0.7,0.7
	s-0.3,0.7-0.7,0.7c-0.4,0-0.7-0.3-0.7-0.7S42.4,25.4,42.8,25.4z M2.2,26.9c-0.4,0-0.7-0.3-0.7-0.7s0.3-0.7,0.7-0.7
	c0.4,0,0.7,0.3,0.7,0.7S2.6,26.9,2.2,26.9z M2.2,32.7c-0.4,0-0.7-0.3-0.7-0.7c0-0.4,0.3-0.7,0.7-0.7c0.4,0,0.7,0.3,0.7,0.7
	C2.9,32.3,2.6,32.7,2.2,32.7z M7.3,37.7c-0.4,0-0.7-0.3-0.7-0.7s0.3-0.7,0.7-0.7C7.7,36.3,8,36.6,8,37S7.7,37.7,7.3,37.7z M2.2,43.5
	c-0.4,0-0.7-0.3-0.7-0.7c0-0.4,0.3-0.7,0.7-0.7c0.4,0,0.7,0.3,0.7,0.7C2.9,43.2,2.6,43.5,2.2,43.5z M42.8,42.1
	c0.4,0,0.7,0.3,0.7,0.7c0,0.4-0.3,0.7-0.7,0.7c-0.4,0-0.7-0.3-0.7-0.7C42.1,42.4,42.4,42.1,42.8,42.1z M37.7,36.3
	c0.4,0,0.7,0.3,0.7,0.7s-0.3,0.7-0.7,0.7c-0.4,0-0.7-0.3-0.7-0.7S37.3,36.3,37.7,36.3z M42.8,31.2c0.4,0,0.7,0.3,0.7,0.7
	c0,0.4-0.3,0.7-0.7,0.7c-0.4,0-0.7-0.3-0.7-0.7C42.1,31.5,42.4,31.2,42.8,31.2z M1.5,16c0-2.4,2-4.4,4.4-4.4c1.2,0,2.3,0.5,3.1,1.3
	l1-1c-0.7-0.8-1.7-1.3-2.7-1.5c0.3-5,4.4-8.9,9.4-8.9c4.7,0,8.7,3.5,9.3,8.1l1.4-0.2c-0.2-1.3-0.6-2.5-1.2-3.7
	c1.4-1.7,3.5-2.8,5.7-2.8c4,0,7.3,3.3,7.3,7.3c-1.6,0-3,0.6-4.1,1.7l1,1c0.8-0.8,1.9-1.3,3.1-1.3c2.4,0,4.4,2,4.4,4.4
	s-2,4.4-4.4,4.4H37v-0.4L22.5,10L8.3,19.7L8,20v0.3H5.8C3.4,20.3,1.5,18.4,1.5,16z M22.5,43.4c-6.6-4-11.2-10.7-12.6-18.2l0,0
	l-0.1-0.1c-0.3-1.4-0.4-2.9-0.4-4.4l13.1-8.9l13.1,8.9c0,1.5-0.2,3-0.4,4.4l-0.1,0.1l0,0C33.7,32.7,29.2,39.4,22.5,43.4z"/>
</svg>
