<?xml version="1.0" encoding="utf-8"?>
<!-- Generator: Adobe Illustrator 21.1.0, SVG Export Plug-In . SVG Version: 6.00 Build 0)  -->
<svg version="1.1" id="Слой_1" xmlns="http://www.w3.org/2000/svg" xmlns:xlink="http://www.w3.org/1999/xlink" x="0px" y="0px"
	 viewBox="0 0 386 212" style="enable-background:new 0 0 386 212;" xml:space="preserve">
<style type="text/css">
	.st0{fill:#344A5E;stroke:#344A5E;stroke-linecap:round;stroke-linejoin:round;stroke-miterlimit:10;}
	.st1{fill:#FFFFFF;stroke:#344A5E;stroke-linecap:round;stroke-linejoin:round;stroke-miterlimit:10;}
	.st2{fill:#344A5E;}
	.st3{fill:none;stroke:#344A5E;stroke-linecap:round;stroke-linejoin:round;stroke-miterlimit:10;}
	.st4{fill:#ADB7BF;stroke:#344A5E;stroke-linecap:round;stroke-linejoin:round;stroke-miterlimit:10;}
	.st5{fill:#E9F7FE;stroke:#344A5E;stroke-linecap:round;stroke-linejoin:round;stroke-miterlimit:10;}
	.st6{fill:#D5D9DD;}
	.st7{fill:#FFFFFF;stroke:#33495C;stroke-linecap:square;stroke-linejoin:round;stroke-miterlimit:10;}
	.st8{fill:#E6F4FB;stroke:#33495C;stroke-linecap:square;stroke-linejoin:round;stroke-miterlimit:10;}
	.st9{fill:#FFFFFF;}
	.st10{fill:#ABB5BC;stroke:#33495C;stroke-linecap:square;stroke-linejoin:round;stroke-miterlimit:10;}
	.st11{fill:#33495C;stroke:#33495C;stroke-linecap:round;stroke-linejoin:round;stroke-miterlimit:10;}
	.st12{fill:#FFFFFF;stroke:#33495C;stroke-linecap:round;stroke-linejoin:round;stroke-miterlimit:10;}
	.st13{fill:none;stroke:#33495C;stroke-linecap:round;stroke-linejoin:round;stroke-miterlimit:10;}
	.st14{fill:#D6DBDF;}
	.st15{fill:#E9F7FE;stroke:#344A5E;stroke-linecap:square;stroke-linejoin:round;stroke-miterlimit:10;}
	.st16{fill:#ADB7BF;stroke:#344A5E;stroke-linecap:square;stroke-linejoin:round;stroke-miterlimit:10;}
	.st17{fill:none;stroke:#344A5E;stroke-linecap:square;stroke-linejoin:bevel;stroke-miterlimit:10;}
	.st18{fill:#33495C;}
	.st19{fill:none;stroke:#FFFFFF;stroke-linecap:round;stroke-linejoin:round;stroke-miterlimit:10;}
	.st20{fill:none;stroke:#FFFFFF;stroke-miterlimit:10;}
	.st21{fill:#E9F7FE;}
</style>
<g>
	<rect x="-495.4" y="263" class="st0" width="270.5" height="176.4"/>
	<g>
		<g>
			<rect x="-472.7" y="297.4" class="st1" width="266.4" height="151.9"/>
			<rect x="-472" y="288.9" class="st0" width="265.8" height="22.9"/>
			<rect x="-472.7" y="287.4" class="st0" width="266.4" height="38.8"/>
			<ellipse class="st1" cx="-452.3" cy="343.4" rx="3.2" ry="3"/>
			<ellipse class="st1" cx="-452.3" cy="357.7" rx="3.2" ry="3"/>
			<ellipse class="st1" cx="-452.3" cy="372" rx="3.2" ry="3"/>
			<rect x="-406.9" y="337.9" class="st2" width="35.3" height="5.1"/>
			<rect x="-406.9" y="356.7" class="st1" width="58.4" height="5.1"/>
			<rect x="-406.9" y="375.5" class="st2" width="46.8" height="5.1"/>
			<rect x="-406.9" y="396.9" class="st1" width="29.9" height="5.1"/>
			<rect x="-406.9" y="415.7" class="st1" width="31.6" height="5.1"/>
			<line class="st1" x1="-426.2" y1="331.2" x2="-426.2" y2="441.5"/>
			<line class="st1" x1="-273.2" y1="331.2" x2="-273.2" y2="441.5"/>
			<line class="st3" x1="-406.9" y1="349.2" x2="-293.9" y2="349.2"/>
			<line class="st3" x1="-406.9" y1="369" x2="-293.9" y2="369"/>
			<line class="st3" x1="-406.9" y1="388.7" x2="-293.9" y2="388.7"/>
			<line class="st3" x1="-406.9" y1="408.5" x2="-293.9" y2="408.5"/>
			<line class="st3" x1="-406.9" y1="428.3" x2="-293.9" y2="428.3"/>
			<g>
				<path class="st4" d="M-478.2,276.4v25.8c0,9,7.5,16.3,16.6,16.3h1.5c9.1,0,16.6-7.4,16.6-16.3v-25.8H-478.2z"/>
				<path class="st5" d="M-443.5,276.4v25.8c0,9,7.5,16.3,16.6,16.3h1.5c9.1,0,16.6-7.4,16.6-16.3v-25.8H-443.5z"/>
				<path class="st4" d="M-408.8,276.4v25.8c0,9,7.5,16.3,16.6,16.3h1.5c9.1,0,16.6-7.4,16.6-16.3v-25.8H-408.8z"/>
				<path class="st5" d="M-374.2,276.4v25.8c0,9,7.5,16.3,16.6,16.3h1.5c9.1,0,16.6-7.4,16.6-16.3v-25.8H-374.2z"/>
				<path class="st4" d="M-339.5,276.4v25.8c0,9,7.5,16.3,16.6,16.3h1.5c9.1,0,16.6-7.4,16.6-16.3v-25.8H-339.5z"/>
				<path class="st5" d="M-304.8,276.4v25.8c0,9,7.5,16.3,16.6,16.3h1.5c9.1,0,16.6-7.4,16.6-16.3v-25.8H-304.8z"/>
				<path class="st4" d="M-270.1,276.4v25.8c0,9,7.5,16.3,16.6,16.3h1.5c9.1,0,16.6-7.4,16.6-16.3v-25.8H-270.1z"/>
				<path class="st5" d="M-235.4,276.4v25.8c0,9,7.5,16.3,16.6,16.3h1.5c9.1,0,16.6-7.4,16.6-16.3v-25.8H-235.4z"/>
			</g>
		</g>
	</g>
</g>
<g>
	<g>
		<path class="st6" d="M104.4,189.3h236.8c1,0,1.8-0.8,1.8-1.8v-1.4c0-1-0.8-1.8-1.8-1.8H104.4c-1,0-1.8,0.8-1.8,1.8v1.4
			C102.6,188.5,103.4,189.3,104.4,189.3z"/>
		<path class="st6" d="M129.5,160h254.7c1,0,1.8-0.8,1.8-1.8v-1.4c0-1-0.8-1.8-1.8-1.8H129.5c-1,0-1.8,0.8-1.8,1.8v1.4
			C127.7,159.2,128.5,160,129.5,160z"/>
		<rect x="144" y="43.9" class="st7" width="48" height="13.7"/>
		<rect x="144" y="72.7" class="st7" width="48" height="13.7"/>
		<rect x="144" y="101.4" class="st7" width="48" height="13.7"/>
		<rect x="144" y="130.2" class="st7" width="48" height="13.7"/>
		<g>
			<polygon class="st8" points="245.9,183.6 182,183.6 181.9,22.3 245.9,22.3 			"/>
			<polygon class="st8" points="181.8,183.6 127.7,183.6 127.7,76.9 181.8,76.9 			"/>
			<polygon class="st7" points="364.7,154.6 336.3,154.6 336.2,72.7 364.7,72.7 			"/>
			
				<rect x="189.1" y="138.8" transform="matrix(-1 -9.360436e-11 9.360436e-11 -1 416.8561 288.4952)" class="st8" width="38.7" height="10.8"/>
			
				<rect x="189.1" y="158" transform="matrix(-1 -8.126268e-11 8.126268e-11 -1 422.8219 328.8844)" class="st8" width="44.7" height="12.9"/>
			
				<rect x="189.1" y="113.7" transform="matrix(-1 -9.355729e-11 9.355729e-11 -1 416.8561 240.2059)" class="st8" width="38.7" height="12.9"/>
			
				<rect x="189.1" y="88.5" transform="matrix(-1 -9.383973e-11 9.383973e-11 -1 416.8561 189.8297)" class="st8" width="38.7" height="12.9"/>
			
				<rect x="189.1" y="63.3" transform="matrix(-1 -9.360436e-11 9.360436e-11 -1 416.8561 139.4534)" class="st8" width="38.7" height="12.9"/>
			
				<rect x="189.1" y="38.1" transform="matrix(-1 -9.355729e-11 9.355729e-11 -1 416.8561 89.0772)" class="st8" width="38.7" height="12.9"/>
		</g>
		<g>
			<g>
				
					<rect x="288.5" y="41.1" transform="matrix(-1 -4.316026e-11 4.316026e-11 -1 624.7237 195.6829)" class="st7" width="47.8" height="113.5"/>
			</g>
			
				<rect x="296.6" y="120.5" transform="matrix(-1 -7.823532e-11 7.823532e-11 -1 626.7336 250.3995)" class="st7" width="33.6" height="9.3"/>
			
				<rect x="296.6" y="102.3" transform="matrix(-1 -7.823532e-11 7.823532e-11 -1 626.7336 213.8879)" class="st7" width="33.6" height="9.3"/>
			
				<rect x="296.6" y="84" transform="matrix(-1 -7.823532e-11 7.823532e-11 -1 626.7336 177.3763)" class="st7" width="33.6" height="9.3"/>
			
				<rect x="296.6" y="65.8" transform="matrix(-1 -7.823532e-11 7.823532e-11 -1 626.7336 140.8646)" class="st7" width="33.6" height="9.3"/>
			
				<rect x="296.6" y="47.5" transform="matrix(-1 -7.823532e-11 7.823532e-11 -1 626.7336 104.353)" class="st7" width="33.6" height="9.3"/>
		</g>
		<rect x="246.3" y="0" transform="matrix(-1 -4.731871e-11 4.731871e-11 -1 544.623 4.0206)" class="st8" width="52" height="4"/>
		
			<rect x="241" y="4" transform="matrix(-1 -4.745949e-11 4.745949e-11 -1 546.748 187.6303)" class="st8" width="64.7" height="179.6"/>
		
			<rect x="255" y="17.4" transform="matrix(-1 -5.052992e-11 5.052992e-11 -1 560.7589 50.9282)" class="st8" width="50.7" height="16.1"/>
		
			<rect x="255" y="46.9" transform="matrix(-1 -4.615165e-11 4.615165e-11 -1 560.7589 108.5575)" class="st8" width="50.7" height="14.7"/>
		
			<rect x="255" y="75.1" transform="matrix(-1 -4.180890e-11 4.180890e-11 -1 560.7589 163.5064)" class="st8" width="50.7" height="13.4"/>
		
			<rect x="255" y="101.9" transform="matrix(-1 -4.202428e-11 4.202428e-11 -1 560.7589 217.115)" class="st8" width="50.7" height="13.4"/>
		
			<rect x="255" y="128.7" transform="matrix(-1 -4.223967e-11 4.223967e-11 -1 560.7589 270.7237)" class="st8" width="50.7" height="13.4"/>
		
			<rect x="255" y="155.5" transform="matrix(-1 -4.206025e-11 4.206025e-11 -1 560.7589 324.3323)" class="st8" width="50.7" height="13.4"/>
	</g>
	<g>
		<rect x="104.8" y="47.2" class="st4" width="177.5" height="103"/>
		<rect x="85.5" y="30" class="st1" width="187.7" height="112.6"/>
		<rect x="86" y="30.3" class="st0" width="187.2" height="10.3"/>
		<rect x="85.5" y="41.4" class="st5" width="187.7" height="9.9"/>
		<rect x="91.1" y="32.9" class="st9" width="33" height="5.2"/>
		<circle class="st1" cx="99.9" cy="64.1" r="2.2"/>
		<circle class="st1" cx="99.9" cy="74.7" r="2.2"/>
		<circle class="st1" cx="99.9" cy="85.3" r="2.2"/>
		<rect x="106.1" y="63" class="st1" width="19" height="2.3"/>
		<rect x="235.6" y="62.7" class="st4" width="26.2" height="6.3"/>
		<rect x="106.1" y="73.6" class="st1" width="14.5" height="2.3"/>
		<rect x="106.1" y="84.2" class="st1" width="16.5" height="2.3"/>
		<rect x="235.6" y="75.3" class="st1" width="15.2" height="3.8"/>
		<rect x="235.6" y="84.2" class="st1" width="20.3" height="3.8"/>
		<rect x="235.6" y="93" class="st1" width="17" height="3.8"/>
		<rect x="235.6" y="101.9" class="st1" width="15.2" height="3.8"/>
		<path class="st1" d="M226.9,131.4h-92.6c-1.1,0-2-0.9-2-2V63.9c0-1.1,0.9-2,2-2h92.6c1.1,0,2,0.9,2,2v65.5
			C228.9,130.5,228,131.4,226.9,131.4z"/>
		<path class="st1" d="M132.2,97.3V59.7c0-0.6,0.5-1.2,1.2-1.2h30c0.7,0,1.2,0.5,1.2,1.2v16.8"/>
		<line class="st1" x1="197.1" y1="61.9" x2="197.1" y2="76.1"/>
		<line class="st1" x1="136.4" y1="113.7" x2="224.2" y2="113.7"/>
		<rect x="136.4" y="119.3" class="st5" width="34.7" height="6.5"/>
		<path class="st1" d="M140.3,63.1c-2,0-3.5,1.6-3.5,3.5c0,2,1.6,3.5,3.5,3.5s3.5-1.6,3.5-3.5C143.9,64.7,142.3,63.1,140.3,63.1z"/>
		<path class="st1" d="M171.2,65.5c-2,0-3.5,1.6-3.5,3.5c0,2,1.6,3.5,3.5,3.5c2,0,3.5-1.6,3.5-3.5C174.7,67,173.1,65.5,171.2,65.5z"
			/>
		<path class="st1" d="M204,65.5c-2,0-3.5,1.6-3.5,3.5c0,2,1.6,3.5,3.5,3.5s3.5-1.6,3.5-3.5C207.5,67,205.9,65.5,204,65.5z"/>
		<rect x="211.2" y="66.6" class="st1" width="13.5" height="4.1"/>
		<rect x="180" y="66.6" class="st1" width="13.5" height="4.1"/>
		<rect x="147" y="64.3" class="st1" width="13.5" height="4.1"/>
	</g>
	<g>
		<path class="st6" d="M16.9,211.6h76.5c3.1,0,5.7-2.3,5.7-5.1v0c0-2.8-11.9-5.1-15-5.1H14.4c-3.1,0-3.1,2.3-3.1,5.1v0
			C11.2,209.3,13.8,211.6,16.9,211.6z"/>
		<path class="st10" d="M63.9,59.2c0,0,2.1-1,5.2,18.6s10.3,11.3,10.3,11.3s-3.1,8.3-7.2,9.3c-4.1,1-10.3-1-12.4-2.1
			C57.7,95.4,57.7,64.4,63.9,59.2z"/>
		<path class="st11" d="M32.9,100.5c0,0-3.1,12.4-2.1,21.7c1,9.3,5.2,71.3,5.2,71.3h8.3c0,0-0.5-49.4,3.1-69.3h2.1
			c13.4,26.9,11.4,30,12.4,32c1,2.1,2.1,39.3,2.1,39.3h9.3c0,0,1-33.1,1-40.3c-1-10.3-14.5-54.8-14.5-54.8S47.4,100.5,32.9,100.5z"
			/>
		<path class="st12" d="M63.4,195.1h10.3l10.3,8.3c0,0,12.9,4.7-3.6,4.7c-12.9,0-19.1-4.7-19.1-4.7L63.4,195.1z"/>
		<path class="st12" d="M44.3,193.6c0,0,2.1,4.1,2.1,9.3c-2.1,0-1.8,2.3-4.1,3.1c-2.3,0.8-7.2,0-12.4,0c-6.9,0-2.1-5.2,0-5.2
			c2.1-3.1,6.2-7.2,6.2-7.2H44.3z"/>
		<path class="st13" d="M32.5,54.5c0,0,0.8,3.6-0.4,8.7c-1.6,6.7-2.7,8.7-2.7,8.7"/>
		<g>
			<path class="st10" d="M33.4,54.2c4.1-1.3,7.3-1.7,11.4-1.7c9.3,0,17.6,4.1,18.6,6.2c1,2.1-2.1,41.4-3.1,42.4
				c-1,1-27.5,1.1-27.5-0.9c0-1.1-3-17-3.4-28.5c-0.1-0.1-0.2-0.2-0.4-0.5c1-1.3,1.9-3.3,2.6-6.3C32.7,60.2,33.2,56.6,33.4,54.2z"/>
			<path class="st10" d="M52.4,93.3c3.9-1.1,6.5-3,5.3-7c-1.2-4.1-4.1-4.6-8.2-4.3c-6.1,0.4-13.9-1.5-18.4-1.4
				c0.1-4,4.5-22,1.6-26.1c-13.3,4.2-13,28.4-10.8,32.5C24.4,91.4,33,98.5,52.4,93.3z"/>
		</g>
		<path class="st12" d="M58.7,89.3c0,0,2.8,1.1,3.9,1c0.7,0,3-0.8,4.7-1.4c1.6-0.5,2.9-1.6,3.6-3.1c0.5-1,0.8-2.1-0.1-2.7
			c-2-1.3-11.8,1.2-11.8,1.2L58.7,89.3z"/>
		
			<rect x="54" y="85.1" transform="matrix(1.727084e-02 0.9999 -0.9999 1.727084e-02 143.0911 28.2744)" class="st10" width="6.3" height="3.7"/>
		<polygon class="st8" points="93.8,89.5 61.4,89.5 72,64.9 104.4,64.9 		"/>
		<path class="st8" d="M39.1,91.2h53.8c0.5,0,1-0.4,1-1v-0.1c0-0.5-0.5-1-1-1H39.1c-0.5,0-1,0.5-1,1v0.1
			C38.1,90.8,38.6,91.2,39.1,91.2z"/>
		<path class="st12" d="M71.2,94.3h11.4c1.1,0,2.1-0.9,2.1-2.1v0c0-1.1,0-2.1-2.1-2.1c-7.2,0-13.4,0.9-13.4,2.1v0
			C69.1,93.4,70,94.3,71.2,94.3z"/>
		<path class="st12" d="M47.3,35.4L47.3,35.4c3.1,0,5.7,2.6,5.7,5.7v11.4c0,3.1-2.6,5.7-5.7,5.7h0c-3.1,0-5.7-2.6-5.7-5.7V41.1
			C41.7,38,44.2,35.4,47.3,35.4z"/>
		<g>
			<path class="st12" d="M50.3,50.9h-0.6c-4.2,0-7.7-3.5-7.7-7.7V31.9c0-1.5,1.2-2.8,2.8-2.8h8.2c1.5,0,2.8,1.2,2.8,2.8v13.6
				C55.7,48.5,53.3,50.9,50.3,50.9z"/>
			<path class="st10" d="M39.4,29.9c0.2-3.7,4.6-4.8,10.7-4.7c6.2,0.1,8,2.2,8.2,4.1c0.1,0.9-0.8,2.6-2.6,2.7
				c-1.8,0.1-8.1-0.1-11.1-0.1c0,0,0,0.1,0,0.1v9.2c0,0.7-0.6,1.3-1.3,1.3c-0.7,0-1.3-0.6-1.3-1.3v-1.7c-0.3,0.4-0.7,2.5-1.6,2.5
				C39.1,41.9,39.1,33.6,39.4,29.9z"/>
			<path class="st12" d="M42,35h-1.5c-1.2,0-2.3,0.5-2.1,1.9c0.2,1.5,0.6,5.8,3.1,5.8H42V35z"/>
		</g>
	</g>
</g>
<g>
	<path class="st14" d="M459.5,176.5h229.3c1,0,1.8-0.8,1.8-1.8v-1c0-1-0.8-1.8-1.8-1.8H459.5c-1,0-1.8,0.8-1.8,1.8v1
		C457.7,175.7,458.5,176.5,459.5,176.5z"/>
	<path class="st14" d="M443.8,149.7h261.3c1,0,1.8-0.8,1.8-1.8v-1c0-1-0.8-1.8-1.8-1.8H443.8c-1,0-1.8,0.8-1.8,1.8v1
		C442,148.9,442.8,149.7,443.8,149.7z"/>
	<g>
		
			<rect x="447.2" y="40.8" transform="matrix(-1 -7.017910e-11 7.017910e-11 -1 921.2878 185.2735)" class="st15" width="26.8" height="103.7"/>
	</g>
	<g>
		
			<rect x="650.3" y="40.8" transform="matrix(-1 -4.595581e-11 4.595581e-11 -1 1341.5844 185.2742)" class="st15" width="40.9" height="103.7"/>
	</g>
	<rect x="476.3" class="st15" width="47.8" height="3.5"/>
	<rect x="470.5" y="3.5" class="st15" width="59.4" height="141"/>
	<rect x="470.5" y="15.1" class="st15" width="46.4" height="12.8"/>
	<rect x="470.5" y="40.8" class="st15" width="46.4" height="11.7"/>
	<rect x="470.5" y="40.2" class="st15" width="46.4" height="12.8"/>
	<rect x="470.5" y="65.8" class="st15" width="46.4" height="11.7"/>
	<rect x="470.5" y="65.3" class="st15" width="46.4" height="12.8"/>
	<rect x="470.5" y="90.9" class="st15" width="46.4" height="11.7"/>
	<rect x="470.5" y="90.3" class="st15" width="46.4" height="12.8"/>
	<rect x="470.5" y="115.9" class="st15" width="46.4" height="11.7"/>
	<g>
		
			<rect x="490.4" y="77.2" transform="matrix(-1 -3.850044e-11 3.850044e-11 -1 1024.6068 248.4389)" class="st15" width="43.9" height="94"/>
	</g>
	<polygon class="st16" points="555.6,171.3 512.5,171.3 512.5,52.4 555.6,52.4 	"/>
	
		<rect x="518.3" y="129.3" transform="matrix(-1 -8.007563e-11 8.007563e-11 -1 1068.1073 267.6121)" class="st17" width="31.5" height="9"/>
	
		<rect x="518.3" y="111.8" transform="matrix(-1 -8.013336e-11 8.013336e-11 -1 1068.1073 232.5938)" class="st17" width="31.5" height="9"/>
	
		<rect x="518.3" y="94.3" transform="matrix(-1 -8.007563e-11 8.007563e-11 -1 1068.1073 197.5754)" class="st17" width="31.5" height="9"/>
	
		<rect x="518.3" y="76.8" transform="matrix(-1 -8.007563e-11 8.007563e-11 -1 1068.1073 162.5571)" class="st17" width="31.5" height="9"/>
	
		<rect x="518.3" y="146.8" transform="matrix(-1 -8.007563e-11 8.007563e-11 -1 1068.1073 302.6305)" class="st17" width="31.5" height="9"/>
	
		<rect x="518.3" y="59.3" transform="matrix(-1 -8.007563e-11 8.007563e-11 -1 1068.1073 127.5387)" class="st17" width="31.5" height="9"/>
	<polygon class="st15" points="664.4,171.3 613.9,171.3 613.9,52.4 664.4,52.4 	"/>
	
		<rect x="561.4" y="11.7" transform="matrix(-1 -4.477542e-11 4.477542e-11 -1 1170.5454 26.8006)" class="st16" width="47.8" height="3.5"/>
	
		<rect x="555.6" y="15.1" transform="matrix(-1 -4.490287e-11 4.490287e-11 -1 1170.5454 186.4388)" class="st16" width="59.4" height="156.1"/>
	
		<rect x="568.4" y="26.8" transform="matrix(-1 -4.766510e-11 4.766510e-11 -1 1183.4152 67.5841)" class="st16" width="46.6" height="14"/>
	
		<rect x="568.4" y="52.4" transform="matrix(-1 -4.360169e-11 4.360169e-11 -1 1183.4152 117.6895)" class="st16" width="46.6" height="12.8"/>
	
		<rect x="568.4" y="76.9" transform="matrix(-1 -3.953872e-11 3.953872e-11 -1 1183.4152 165.4644)" class="st16" width="46.6" height="11.7"/>
	
		<rect x="568.4" y="100.2" transform="matrix(-1 -3.996859e-11 3.996859e-11 -1 1183.4152 212.0741)" class="st16" width="46.6" height="11.7"/>
	
		<rect x="568.4" y="123.5" transform="matrix(-1 -3.973412e-11 3.973412e-11 -1 1183.4152 258.6838)" class="st16" width="46.6" height="11.7"/>
	
		<rect x="568.4" y="146.8" transform="matrix(-1 -3.973412e-11 3.973412e-11 -1 1183.4152 305.2935)" class="st16" width="46.6" height="11.7"/>
</g>
<path class="st6" d="M818.2,212H685.8c-5.4,0-9.8-2.6-9.8-5.8v0c0-3.2,20.5-5.8,25.9-5.8h120.7c5.4,0,5.4,2.6,5.4,5.8v0
	C828,209.4,823.6,212,818.2,212z"/>
<g>
	<path class="st6" d="M646.5,190.3h-15.3c-1.9,0-3.5,1.6-3.5,3.5v0c0,1.9-1.6,3.5-3.5,3.5h-30.7c-0.4,0-0.9-0.1-1.3-0.3l-11.1-3.4
		c-3.1-1.3-2.9-4.1,0.4-4.9l55.7-14.3c1.2-0.3,2.5,0.1,3.4,1l9.4,9.6C652,187.2,649.5,190.3,646.5,190.3z"/>
	<g>
		<g>
			<path class="st9" d="M595.5,73c0.4,0.1,0.7,0.2,0.9,0.3c1.6,0.3,6.5,1.4,8.1,1.8l0.5,0.1l0.2-0.1c2.1-1.2,5.4-5.6,12.4-16
				c0.5-0.7,1.1-1.4,2-2.1l0.3-0.3l6.8-3.4c1.7-0.6,3.1-1,3.6-1.1l0.4-0.1l0.1-3.5l-0.8,0.7c-0.6,0.5-1.4,0.8-2.5,0.8
				c-0.2,0-0.4,0-0.6,0c-1.3-0.1-2.1-0.5-2.4-1.1c-0.4-0.9,0.1-2.3,0.8-3.4l0.3-0.4l-0.4-0.3c-0.6-5.6,1-14.2,1.1-14.5l0.2-0.4
				l-0.4-0.3c-2.2-1.4-1.8-2.5-1.6-2.9c0.4-1,2.2-1.6,5.1-1.6c5.5,0,11.9,2,12.6,3.4c1.3,2.7-1.1,15.9-2.6,17.1l-0.2,0.2l0.3,4.8
				l0.5,0c0.1,0,10.6,0.8,10.6,8.7c0,8.4-4,23.5-6.2,31.7c-0.4,1.4-0.7,2.5-0.9,3.4l0,0.2l0.1,0.2c0.6,1.2,3.8,7.7,3.8,12.7
				c0,1.5-0.1,3.4-0.2,5.5c-0.3,5.9-0.6,13.9,0.2,24.3c1.1,13.9,0,38.7,0,39.7l0,0.1l1.8,7.1c0.4,1.5-0.4,2.7-0.4,2.7c0,0,0,0,0,0
				c-0.8,0.8-2.1,1.2-3.9,1.2c-1,0-2-0.1-2.7-0.2c-4.1-0.6-10.5-7.2-10.6-8.2c-0.1-0.7-0.1-2.3,0.5-2.8c0.4-0.4,1.3-0.6,2-0.7
				c0.4-0.1,0.7-0.1,0.8-0.2c0.5-0.2,0.9-0.3,1.3-0.3c0.8,0,1.7,0.3,3.5,1l1,0.4l0-0.8c-0.2-4.2-2.2-41.7-4.4-58.7l-0.9-0.1
				c-3,8.4-4.6,12.3-5.5,14.6c-1.3,3.3-1.3,3.3-2.3,8.1c-0.2,0.9-0.4,2-0.7,3.3c-1.1,5.3-1.5,9.6-1.9,14.2
				c-0.6,7.1-1.3,15.2-5.1,29.2l0,0.1l0,0.1c0.4,2.3,1,6.7,0.7,8c-0.1,0.5-1,0.8-2.6,0.8c-1.6,0-4-0.3-8.1-0.9l-0.2,0
				c-0.8-0.1-1.5-0.2-2-0.3l-1.5-0.2c-6.8-0.8-11-1.4-11.4-1.7c-0.1-0.2-0.1-0.6,0-1.9c0.1-1.4,1.2-2.4,2.5-2.6l16.5-2.8l0-0.4
				c0.1-1.4,0.6-6.9,1.2-14.5l0.1-0.6c4.3-50.7,6-69.5,6.5-71.8l0-0.1L619,75.3l-0.7,0.6c-2.7,2.4-5,4.2-6.8,5.5l-0.5,0.3
				c-1.9,1.3-3.1,2.1-4.4,2.1c-0.2,0-0.4,0-0.5,0c-1.7-0.2-5.8-1.2-7.7-1.8c-0.8-0.2-2.4-1-4.4-2c0.1-1,0.2-2.1,0.3-3.4
				C594.4,75.1,594.9,73.9,595.5,73z"/>
			<path class="st9" d="M583.6,74l-0.2,0c-0.5,0.1-0.9,0.1-1.4,0.1c-1.8,0-3.5-0.7-5.1-1.3l-0.2-0.1c-2-0.8-6.3-3-6.7-3.4
				c-0.3-0.2-0.2-0.6-0.1-0.8l0.2-0.4l-0.4-0.2c-0.8-0.5-1.5-0.9-1.8-1.1c-0.4-0.3-0.3-0.8-0.1-1.2l0.2-0.3l-0.3-0.2
				c-0.3-0.2-0.9-0.8-0.8-1.4c0.1-0.6,1-0.7,1.3-0.7l0.3,0l0.4-0.6c0.1-0.2,0.3-0.3,0.8-0.3c0.7,0,1.6,0.2,2.8,0.5l0.9,0.2
				c1.1,0.2,3,0.9,5.6,1.8l1.5,0.6l-1-1.3c-0.4-0.5-0.8-1.1-1-1.4c-0.5-0.7,0.4-1.8,0.4-1.9l2,1.4l2.2,2.8l2.5,4.2l0.1,0.1
				c1.8,0.8,7.3,3.3,9.8,4.1c-0.6,1-1.1,2.2-1.2,3.6c-0.1,1.3-0.2,2.4-0.3,3.4c-3.1-1.7-7.2-4-10.2-5.9L583.6,74z"/>
		</g>
		<path class="st18" d="M619.1,186.7c-1.3,0.5-2.9,0.2-4.3-0.1c-0.4-0.1-0.8-0.2-1.1-0.5c-1-0.9-0.1-5,0-6.2
			c0.3-3.4,0.6-6.7,0.9-10.1c3.6-42.8,6-69.9,6.5-71.9l0-0.2c2.6,0.1,6.4,0.1,11.4-0.3c5-0.4,8.7-1.6,11.4-2.9
			c0.4,0.9,3.8,7.6,3.8,12.9c0,1.5-0.1,3.4-0.2,5.5c-0.3,5.8-0.6,13.9,0.2,24.3c1.1,14,0,38.7,0,39.8c0.3,1.3,0.7,2.9-0.9,3.5
			c-0.2,0.1-0.4,0.1-0.7,0.1c-1,0.1-2,0.2-3,0c-0.7-0.1-1.4-0.4-1.9-0.9c-0.6-0.7-0.8-2.2-1.1-3.1c0,0,0.3,0,0.3,0.1
			c-0.2-4.3-2.3-43.4-4.6-60.1c-3.3,9-4.9,13.1-5.9,15.6c-1.3,3.2-1.3,3.2-2.3,8.1c-0.2,0.9-0.4,2-0.7,3.3
			c-1.1,5.3-1.5,9.6-1.9,14.1c-0.4,4-0.8,8.1-1.4,12.1c-0.4,2.7-0.9,5.3-1.5,7.9c-0.3,1.5-0.7,3-1,4.5c-0.3,1.2-0.4,3.6-1.5,4.3
			C619.5,186.6,619.3,186.6,619.1,186.7z"/>
		<path class="st18" d="M632.3,32.5c0,0-9.9-1.8-8.4-5.8s17.3-1,18.6,1.7c1.3,2.8-1,16.6-2.8,17.8c-1.8,1.2-4.8,0.5-4.8,0.5
			l-0.2-1.9c0,0,1.7-2.1,2.3-5.1c0.6-3-2.2-2.6-3.1-1.6c-0.8,1.1,0.5,4.8-1.1,6.9s-1.3,6-6.1,5.6s-2.5-4.6-1.6-5.6
			c0.8-1.1,4.7-1.5,5.3-4.5C631,37.5,632.3,32.5,632.3,32.5z"/>
		<path class="st13" d="M639.3,45.6l0.5,6.6c0,0-3,2.8-5.9,2.6c-2.9-0.1-3.3-2.8-3.3-2.8l0.1-4.1"/>
		<path class="st13" d="M626.1,30.4c0,0-1.8,8.8-1.1,14.5"/>
		<path class="st13" d="M640.1,50.6c0,0,10.6,0.7,10.6,8.7c0,10-5.8,29.8-7.1,35.2c-7.9,4.1-22.3,3.4-22.3,3.4L619,75.3"/>
		<path class="st13" d="M630.5,52.1c0,0-10,2.2-13.1,6.9c-7.5,11.3-10.5,15.1-12.6,16.1c0,0-6.6-1.5-8.5-1.9
			c-1.9-0.4-10.9-4.5-10.9-4.5l-2.5-4.2l-2.2-2.8l-2-1.4c0,0-0.9,1.1-0.4,1.9s2,2.8,2,2.8"/>
		<path class="st13" d="M643.6,94.6c0,0,3.9,7.3,3.9,12.9c0,5.5-1.1,15.5,0,29.8c1.1,14.4,0,39.8,0,39.8l1.8,7.1
			c0.4,1.5-0.4,2.7-0.4,2.7c-1.5,1.6-5,1.2-6.6,1c-3.9-0.6-10.4-7.1-10.6-8.2c-0.1-0.5-0.1-2.3,0.5-2.8c0.7-0.6,2.3-0.7,2.8-0.9
			c1.2-0.6,1.9-0.5,4.8,0.7c1.9,0.8,0.4,0.2,1,0.4"/>
		<path class="st13" d="M648,179.4c0,1.1-3.6,1.9-6.6,0.7c-1.2-0.5-0.7-3-0.7-3s-2.2-44.3-4.7-61.5c-9,24.9-6.4,14.4-9.3,27.9
			c-2.9,13.5-0.8,20.4-7,43.5c-4-0.7-6.4-0.8-6.2-1.5c0.1-0.7,7.1-86.4,7.8-87.5"/>
		<path class="st13" d="M619.7,187c0,0,1.1,6.4,0.7,8.1s-9.6,0-12.9-0.4c-3.3-0.4-12.8-1.5-12.9-1.9c-0.1-0.2-0.1-0.7,0-1.9
			c0.1-1.4,1.2-2.4,2.5-2.6l16.5-2.8"/>
		<path class="st13" d="M582.1,65.7c0,0-6.3-2.5-8.8-3.1c-2.5-0.6-4.1-1.1-4.5-0.4c-0.4,0.6-0.4,0.6-0.4,0.6s-1.4-0.1-1.5,0.7
			c-0.2,0.8,1.1,1.6,1.1,1.6s-0.7,1.1-0.1,1.5c0.6,0.5,2.3,1.4,2.3,1.4s-0.6,0.8-0.2,1.2c0.5,0.4,4.7,2.6,6.7,3.4
			c2,0.8,4.3,1.8,6.9,1.2c4.9,3.1,12.7,7.5,14.8,8s6.1,1.5,7.7,1.8c1.7,0.2,2.9-0.6,5.4-2.4c2.5-1.7,5.3-4.1,7.5-6.1
			c2.2-2,4.7-4.6,4.7-4.6"/>
		<path class="st13" d="M596.4,73.2c0,0-3.1,2.8-2.5,6.7"/>
	</g>
	<g>
		<path class="st12" d="M622.7,49.3L622.7,49.3l-0.6-4.6l-0.7-3l-0.9-1.7c0,0-1.5,0.4-1.4,1.1c0.1,0.3,0.2,1,0.3,1.5l0.3,1.4
			c0,0-2.7-2.6-3.3-3l-0.5-0.4c-0.3-0.2-0.5-0.4-0.7-0.5v10.4c0.3,0.3,0.5,0.6,0.8,0.9l0.1,0.1c0.9,0.9,1.7,1.8,2.9,2.2
			c0.3,0.1,0.6,0.1,0.9,0.1l0.1,0l0.1,0.1c1.4,2.4,0.9,1.5,1.1,1.8c0.9-0.5,3.9-1.9,5.4-2.5C625.2,52,623.7,50.4,622.7,49.3z"/>
	</g>
</g>
<g>
	<g>
		<path class="st12" d="M685.2,105.5l-4.6,2.3c0,0-3,7.2-3.4,8.2c-0.3,1,0.3,6,0.3,6l3.8,0l1.5-3.5l3.6-2.4c0,0,1.1-1.6,2.1-2.1
			c0.9-0.5,1.3-3.9,1.3-3.9L685.2,105.5z"/>
		<path class="st12" d="M734.6,106.8c0,0,2,6.1,2.3,14.9c0.2,5.5-3.2,29.7-4.3,46c-1.1,15.1-3.2,27.8-3.2,27.8h-7.8
			c0,0,0.4-46.8-2.9-65.6h-1.4c-3,16.8-7.4,65.6-7.4,65.6h-8.8c0,0-0.6-17.1,0-34.7c0.5-14.3,2.3-29.3,2.3-32.4
			c1-9.8,3.4-20.5,3.4-20.5S720.8,106.8,734.6,106.8z"/>
		<g>
			<path class="st11" d="M695.3,106.8c9.2-3.6,13.8-20.1,16.7-32.9c0.7-3.2-1.3-6.3-4.4-7c-3.2-0.7-6.3,1.3-7,4.4
				c-1.3,5.8-2.3,13.3-3.6,17c-12.1,9.4-10.6,13-8.9,15.1C689.2,104.9,691.9,108.2,695.3,106.8z"/>
		</g>
		<g>
			<path class="st11" d="M735.2,64.7c-4.1-1.3-10.1-2.8-14.1-2.8c-8.8,0-16.7,3.9-17.6,5.9s4.4,45,1.4,49.5
				c-0.8,1.2,32.6,5.9,32.6,4c0-1.1,2.8-16.3-1.8-40.5C735.5,80.6,735,66.9,735.2,64.7z"/>
		</g>
		<path class="st12" d="M721.2,45.7h-0.3c-2.9,0-5.3,2.4-5.3,5.3v11c0,2.9,2.4,5.3,5.3,5.3h0.3c2.9,0,5.3-2.4,5.3-5.3v-11
			C726.4,48,724.1,45.7,721.2,45.7z"/>
		<g>
			<path class="st12" d="M718.3,60.3h0.3c4.1,0,7.5-3.4,7.5-7.5V42.4c0-1.5-1.2-2.7-2.7-2.7h-7.7c-1.5,0-2.7,1.2-2.7,2.7v12.7
				C713.1,58,715.5,60.3,718.3,60.3z"/>
			<path class="st10" d="M728.6,40.4c-0.2-3.5-4.3-4.6-10.2-4.5c-5.8,0.1-7.6,2.1-7.7,3.9c-0.1,0.9,0.7,2.5,2.4,2.6
				c1.7,0.1,7.7-0.1,10.6-0.1c0,0,0,0.1,0,0.1v8.7c0,0.7,0.5,1.2,1.2,1.2c0.7,0,1.2-0.5,1.2-1.2v-1.6c0.3,0.4,0.7,2.4,1.5,2.4
				C728.8,51.8,728.8,44,728.6,40.4z"/>
			<path class="st12" d="M726.1,45.3h1.4c1.1,0,2.1,0.5,2,1.8c-0.2,1.4-0.6,5.5-2.9,5.5h-0.4V45.3z"/>
		</g>
		<path class="st10" d="M721.5,195.5c0,0-2,3.9-2,8.8c2,0,1.7,2.2,3.9,2.9c2.2,0.7,6.9,0,11.8,0c6.6,0,2-4.9,0-4.9
			c-2-2.9-5.9-6.9-5.9-6.9H721.5z"/>
		<path class="st10" d="M709.1,195.5c0,0,2,3.9,2,8.8c-2,0-1.7,2.2-3.9,2.9c-2.2,0.7-6.9,0-11.8,0c-6.6,0-2-4.9,0-4.9
			c2-2.9,5.9-6.9,5.9-6.9H709.1z"/>
		<path class="st19" d="M704.4,100.1c-0.1-1.2-0.8-6.5-1-14.4"/>
		<path class="st12" d="M707.6,102.7"/>
		<path class="st11" d="M728.4,62.5l-1.3-3.6c0,0,0.9,0.3-0.6,1.6c-1.7,1.4-3,2.3-5.5,2.2c-5.9-0.2-6-2-6-2l-0.2-0.1
			c0,0-0.4,3.9-0.3,4c0,0,1.9,1.8,4.4,2.2c0,0,3.9,0.1,5.9-0.9c1.2-0.6,2.3-1.4,3-2.5L728.4,62.5z"/>
		<g>
			<path class="st18" d="M749.1,113.7c0,0-0.1,0-0.1,0c-3.2-0.1-5.8-1.3-6.2-6.2c0-0.1-1.9-10-4.7-18.9c-2.4-7.6-8.6-14.3-8.6-14.4
				c-2.7-1.6-3.7-5.2-2.1-7.9c1.6-2.7,5.1-3.7,7.9-2.1c0.5,0.3,12.8,7.6,16.5,19.5c3.3,10.7,3.1,23.7,3.1,24.3
				C754.9,111.2,752.3,113.7,749.1,113.7z"/>
		</g>
		<path class="st20" d="M704.8,63.7c-1.8,5.7-1.9,12-1.4,22.9"/>
		<g>
			<rect x="679.2" y="115.2" class="st12" width="71.9" height="20.6"/>
			<circle class="st15" cx="738.7" cy="120.2" r="1.2"/>
			<circle class="st15" cx="738.7" cy="125.5" r="1.2"/>
			<circle class="st15" cx="738.7" cy="130.8" r="1.2"/>
			<rect x="687.4" y="118.2" class="st12" width="3.5" height="14.3"/>
			<rect x="693.4" y="118.2" class="st12" width="3.5" height="14.3"/>
			<rect x="699.4" y="118.2" class="st12" width="3.5" height="14.3"/>
			<rect x="705.3" y="118.2" class="st12" width="3.5" height="14.3"/>
			<rect x="711.3" y="118.2" class="st12" width="3.5" height="14.3"/>
			<rect x="717.3" y="118.2" class="st12" width="3.5" height="14.3"/>
			<rect x="723.2" y="118.2" class="st12" width="3.5" height="14.3"/>
			<rect x="729.2" y="118.2" class="st12" width="3.5" height="14.3"/>
		</g>
		<path class="st20" d="M738.3,91l-1.6-7.1c0,0-0.4-2.7-0.9-4.4"/>
		<g>
			<path class="st12" d="M746.6,121.4c0,0-0.1,0.7-0.1,0.7c-0.1,0.2-1.5,1.5-1.9,2.2c-0.4,0.8-1.8,0.6-1.8,0.6l0.2-2.1
				c0-0.2,0.1-0.4,0.1-0.6l1.2-2.8c0-0.1,0.1-0.2,0.1-0.2l2.1-3.6c0.2-0.3,0.3-0.7,0.2-1.1c-0.2-2.1-1.4-1.1-1.4-1.1
				c-0.4-1.3,1.8-1.2,3.2-1.1l2.6,0.1c0,0.4,1.3-2.3,1.1,1.2c0,0.5,0.1,0.9,0.4,1.3c1.4,1.8,2.3,3.6,2.5,5.5c0.3,2.2,0.1,2.6,0,3.2
				c-0.1,0.6-1.2,7.7-2,8.2c-0.7,0.4-1.4,0.3-1.4,0.3s-0.7,0.1-1.5,0.3c-0.7,0.2-1.3-1.1-1.4-1.2c0,0-1.2-4.9-2-8.6
				C746.8,121.3,746.6,121.4,746.6,121.4z"/>
		</g>
		<path class="st18" d="M752.8,114.6l-6.6,0.7c-0.6,0.1-1.1-0.4-1.2-1l-0.2-2.4c-0.1-0.6,0.4-1.1,1-1.2l6.6-0.7
			c0.6-0.1,1.1,0.4,1.2,1l0.2,2.4C753.9,114,753.4,114.6,752.8,114.6z"/>
		<path class="st18" d="M689.4,110.6l-4.7-4.7c-0.4-0.4-0.4-1.1,0-1.6l1.7-1.7c0.4-0.4,1.1-0.4,1.6,0l4.7,4.7c0.4,0.4,0.4,1.1,0,1.6
			l-1.7,1.7C690.5,111,689.8,111,689.4,110.6z"/>
	</g>
	<path class="st12" d="M682.1,111.5c0,0,0.9,3.9,0.5,4.6s2.1,0.8,2.1,0.8l1.2-3.6v-2.5"/>
</g>
<g>
	<path class="st10" d="M771.1,109c-0.9,0-3.4-3.6-5.2-8.8c-3.1-9-2.8-12.8-2-15.8c0.8-3,4-7.3,10.5-16.6c1.6-2.3,4.1-2,5.5,0.5
		c1.4,2.6,1.3,6.5-0.3,8.8c-3,4.2-3.6,8.9-5.4,12c1.4,4.9,5.9,11-0.5,16.7C772.5,107,772.3,109,771.1,109z"/>
	<path class="st11" d="M804,105.6c0,0,3,12,2,21c-1,9-5,68.9-5,68.9h-8c0,0,0.4-47.8-3-66.9h-2c-6.9,25.9-14,68.9-14,68.9h-9
		c0,0,2.6-32,2.6-39c1-10,10.4-52.9,10.4-52.9S790,105.6,804,105.6z"/>
	<path class="st12" d="M774.5,197h-10l-10,8c0,0-12.5,4.5,3.5,4.5c12.5,0,18.5-4.5,18.5-4.5L774.5,197z"/>
	<path class="st12" d="M793,195.5c0,0-2,4-2,9c2,0,1.7,2.2,4,3c2.2,0.7,7,0,12,0c6.7,0,2-5,0-5c-2-3-6-7-6-7H793z"/>
	<path class="st10" d="M804.1,62.9c-4.3-1.4-7.4-1.9-11.5-1.9c-8.7,0-16.4,3.9-17.4,5.8c-1,1.9,1.9,38.6,2.9,39.5
		c1,1,25.6,1.1,25.6-0.9c0-1,2.8-15.9,3.2-26.6C807.3,74.9,807.2,64.8,804.1,62.9z"/>
	<path class="st12" d="M792.9,45.2h-0.6c-2.7,0-5,2.2-5,5v11.2c0,2.7,2.2,5,5,5h0.6c2.7,0,5-2.2,5-5V50.2
		C797.9,47.4,795.7,45.2,792.9,45.2z"/>
	<g>
		<path class="st12" d="M787.6,60h4.9c1.5,0,2.8-1.2,2.8-2.8V42.5c0-1.5-1.2-2.8-2.8-2.8h-4.9c-1.5,0-2.8,1.2-2.8,2.8v14.7
			C784.8,58.7,786.1,60,787.6,60z"/>
		<path class="st10" d="M800,40.3c-0.2-3.5-4.3-4.5-10-4.4c-5.7,0.1-7.4,2.1-7.6,3.8c-0.1,0.8,0.5,1.5,1.1,1.9
			c0.2,0.4,0.6,0.7,1.3,0.7c1.7,0,7.6-0.1,10.4-0.1c0,0,0,0.1,0,0.1v2.9c0.1,3.3,0.5,10.3-3.5,10.3c-1.3,0-1.3-1.8-3.9-1.8
			c-4.4,0-4.1,6.5-3.6,6.8c0.5,0.4,6.6,0.3,7.8,0.1c1.2-0.2,2.3-0.1,5.4-5C800.4,50.7,800.3,43.8,800,40.3z"/>
		<path class="st12" d="M797.6,45.1h1.4c1.1,0,2.1,0.5,1.9,1.8c-0.2,1.4-0.6,5.4-2.9,5.4h-0.4V45.1z"/>
	</g>
	<g>
		<path class="st10" d="M804.1,62.9c5,0.7,11.1,10.2,12.3,23c1.1,11.5,0.7,21.1,0.6,21.7c-1.1,6-6.8,4.6-6.8,4.6
			c-3.1-0.7-4.3-1.7-4.7-7.5c0-0.1-0.8-14-1.7-23.6"/>
	</g>
	<g>
		<path class="st12" d="M806.6,120.7c0,0-1.3,3.1-1.9,3.5c-0.7,0.5-2.6-0.5-2.6-0.5l0.8-1.8c0.1-0.2,0.9-3.1,0.9-3.1
			c0.2-1,0.8-1.8,1.6-2.3c1.1-0.7,2.4-1.5,2.4-1.5c0.3-0.2,0.6-0.5,0.7-0.9c0.8-2-0.7-1.6-0.7-1.6c0.2-1.3,2.2-0.2,3.3,0.5l1.1,0.2
			c-0.2,0.3,2.2-1.7,1.7,1.9c-0.1,0.5-0.4,1.7-0.3,2.2c0.4,2.3,0.3,4.2-0.3,6.1c-0.8,2-1.1,2.3-1.5,2.8c-0.4,0.5-2.3,2.9-4,4.3
			c-0.6,0.5-2,1.5-2,1.5s-1.6-0.2-2.4-0.3c-0.8-0.1-0.6-1.6-0.6-1.7c0,0,2.7-4.3,3.7-7.9C806.9,120.9,806.6,120.7,806.6,120.7z"/>
	</g>
	<path class="st10" d="M814.4,115h-6.5c-0.6,0-1.1-0.5-1.1-1.1v-2.3c0-0.6,0.5-1.1,1.1-1.1h6.5c0.6,0,1.1,0.5,1.1,1.1v2.3
		C815.5,114.5,815,115,814.4,115z"/>
	<polygon class="st10" points="777.9,104.1 777.5,104.5 772,109.4 771.6,109.8 769.2,107.3 775.5,101.6 	"/>
	<path class="st12" d="M777.8,102.7c-0.6-0.4-1.4-0.1-2,0.8v0l-1,1.6l-2.8,4.6c-0.1,0.2-0.2,0.5-0.3,0.8c0,0,0,0,0,0
		c-0.1,0.6,0.1,1.2,0.5,1.5c0.9,0.5,2,1,2,1s3.9,1.4,5.1,1.4c1.4,0,4.1-2.5,4.4-4.1c0.2-1.2-2.4-4.5-3.7-5.8
		C778.7,103.2,777.8,102.7,777.8,102.7z"/>
</g>
<g>
	<g>
		<path class="st21" d="M-238.7,474.5c-1.8,0-3.2-1.4-3.2-3v-72.1c0-0.1-0.1-0.3-0.1-0.4c-0.1-0.1-0.2-0.1-0.4-0.1c0,0,0,0,0,0
			c-0.6,0-1.5-0.2-2.2-0.9l-9.5-9.2c-0.9-0.9-1.2-2.1-0.7-3.2c0.4-0.9,1.4-1.9,3-1.9h9.5c0.3,0,0.5-0.2,0.5-0.5v-24.6
			c0-1.7,1.4-3,3.2-3h125.7c1.7,0,3.2,1.4,3.2,3v113c0,1.7-1.4,3-3.2,3H-238.7z"/>
		<path class="st2" d="M-113.1,355.9c1.5,0,2.7,1.1,2.7,2.5v113c0,1.4-1.2,2.5-2.7,2.5h-125.7c-1.5,0-2.7-1.1-2.7-2.5v-72.1
			c0-0.3-0.1-0.5-0.3-0.7s-0.5-0.3-0.7-0.3c-0.7,0-1.4-0.2-1.9-0.7l-9.5-9.2c-0.8-0.7-1-1.7-0.6-2.7c0.3-0.8,1.1-1.6,2.5-1.6h9.5
			c0.6,0,1-0.4,1-1v-24.6c0-1.4,1.2-2.5,2.7-2.5H-113.1 M-113.1,354.9h-125.7c-2,0-3.7,1.6-3.7,3.5v24.6h-9.5c-3.3,0-4.9,3.8-2.6,6
			l9.5,9.2c0.7,0.7,1.7,1,2.6,1c0,0,0,0,0,0v72.1c0,2,1.6,3.5,3.7,3.5h125.7c2,0,3.7-1.6,3.7-3.5v-113
			C-109.4,356.5-111,354.9-113.1,354.9L-113.1,354.9z"/>
	</g>
	<g>
		<text transform="matrix(1 0 0 1 -189.265 383.6231)" class="st2" style="font-family:'Ubuntu'; font-size:16.1331px;">Domain</text>
	</g>
	<g>
		<rect x="-214" y="372.9" class="st1" width="10.9" height="10.9"/>
		<polyline class="st3" points="-211.7,377.7 -208.3,381.1 -203.5,373.7 		"/>
	</g>
	<g>
		<rect x="-214" y="408.1" class="st1" width="10.9" height="10.9"/>
		<polyline class="st3" points="-211.7,413 -208.3,416.4 -203.5,408.9 		"/>
	</g>
	<g>
		<rect x="-214" y="443.4" class="st1" width="10.9" height="10.9"/>
		<polyline class="st3" points="-211.7,448.2 -208.3,451.6 -203.5,444.2 		"/>
	</g>
	<g>
		<g>
			<text transform="matrix(1 0 0 1 -189.265 418.8976)" class="st2" style="font-family:'Ubuntu'; font-size:16.1331px;">SSL</text>
		</g>
	</g>
	<g>
		<g>
			<text transform="matrix(1 0 0 1 -189.265 454.1721)" class="st2" style="font-family:'Ubuntu'; font-size:16.1331px;">Servers</text>
		</g>
	</g>
</g>
<g>
	<g>
		<rect x="692" y="306.3" class="st15" width="38.7" height="120.7"/>
	</g>
	<g>
		<rect x="461.1" y="321.9" class="st15" width="46.4" height="107.8"/>
	</g>
	<g>
		<path class="st0" d="M801.8,426.5c-5.8,0-11.2,1.9-15.6,5.1c0.2-1.7,0.4-3.3,0.4-5.1c0-18.9-15.3-34.2-34.2-34.2
			c-9.9,0-18.7,4.2-25,10.9c0,0,0,0.1,0,0.1c0-0.1,0-0.1,0-0.1c-6.2-22-20-33.9-42.8-33.3c-38,1.1-42.9,42.4-42.3,45.3
			c-5.5-3.8-12.1-6-19.3-6c-18.9,0-34.2,15.3-34.2,34.2c0,2,0.2,4,0.5,5.9h67.3h27.8H727h101C826.2,436.4,815.2,426.5,801.8,426.5z"
			/>
		<path class="st19" d="M730.4,398.8c0,0-10.3,8.2-12.9,19.7"/>
	</g>
	<g>
		<path class="st2" d="M649.6,427c-5.7,0-10.9,1.8-15.2,4.9c0.2-1.6,0.4-3.3,0.4-4.9c0-18.4-14.9-33.3-33.3-33.3
			c-9.6,0-18.3,4.1-24.4,10.6c0,0,0,0.1,0,0.1c0,0,0-0.1,0-0.1c-6.1-21.5-19.5-33.1-41.7-32.4c-37,1.1-41.9,41.4-41.3,44.2
			c-5.4-3.7-11.8-5.8-18.8-5.8c-18.4,0-33.3,14.9-33.3,33.3c0,2,0.2,3.9,0.5,5.8h65.7h27.1h41.5h98.5
			C673.5,436.7,662.7,427,649.6,427z"/>
		<path class="st9" d="M580.7,400.9c0,0-10,8-12.6,19.3"/>
	</g>
	
		<rect x="622.8" y="263" transform="matrix(-1 -4.482826e-11 4.482826e-11 -1 1314.8256 707.5834)" class="st15" width="69.1" height="181.7"/>
	
		<rect x="638.1" y="276.5" transform="matrix(-1 -4.485802e-11 4.485802e-11 -1 1330.0371 567.9413)" class="st15" width="53.9" height="14.9"/>
	
		<rect x="638.1" y="305.7" transform="matrix(-1 -4.489177e-11 4.489177e-11 -1 1330.0371 626.2994)" class="st15" width="53.9" height="14.9"/>
	
		<rect x="638.1" y="335.5" transform="matrix(-1 -4.485802e-11 4.485802e-11 -1 1330.0371 684.5966)" class="st15" width="53.9" height="13.6"/>
	
		<rect x="638.1" y="334.9" transform="matrix(-1 -4.489177e-11 4.489177e-11 -1 1330.0371 684.6575)" class="st15" width="53.9" height="14.9"/>
	
		<rect x="638.1" y="364.7" transform="matrix(-1 -4.485802e-11 4.485802e-11 -1 1330.0371 742.9547)" class="st15" width="53.9" height="13.6"/>
	
		<rect x="638.1" y="393.9" transform="matrix(-1 -4.489177e-11 4.489177e-11 -1 1330.0371 801.3129)" class="st15" width="53.9" height="13.6"/>
	<polygon class="st16" points="593,458.2 643.1,458.2 643.1,319.9 593,319.9 	"/>
	<rect x="599.7" y="382.1" class="st17" width="36.6" height="6.9"/>
	<rect x="599.7" y="368.5" class="st17" width="36.6" height="6.9"/>
	<rect x="599.7" y="355" class="st17" width="36.6" height="6.9"/>
	<rect x="599.7" y="341.4" class="st17" width="36.6" height="6.9"/>
	<rect x="595.9" y="438.5" class="st17" width="33" height="6.3"/>
	<rect x="595.9" y="426.3" class="st17" width="33" height="6.3"/>
	<rect x="599.7" y="409.2" class="st17" width="36.6" height="6.9"/>
	<rect x="599.7" y="395.7" class="st17" width="36.6" height="6.9"/>
	<rect x="599.7" y="327.9" class="st17" width="36.6" height="6.9"/>
	<polygon class="st15" points="475.1,460.2 525.1,460.2 525.2,341.1 475.1,341.1 	"/>
	<g>
		<rect x="481.8" y="378.3" class="st17" width="36.6" height="6.9"/>
		<rect x="481.8" y="364.7" class="st17" width="36.6" height="6.9"/>
		<rect x="481.8" y="351.2" class="st17" width="36.6" height="6.9"/>
		<rect x="481.8" y="432.5" class="st17" width="36.6" height="6.9"/>
		<rect x="481.8" y="419" class="st17" width="36.6" height="6.9"/>
		<rect x="481.8" y="405.4" class="st17" width="36.6" height="6.9"/>
		<rect x="481.8" y="391.9" class="st17" width="36.6" height="6.9"/>
	</g>
	
		<rect x="530.7" y="272.4" transform="matrix(-1 -4.479940e-11 4.479940e-11 -1 1116.8862 548.9608)" class="st16" width="55.6" height="4.1"/>
	
		<rect x="523.9" y="276.5" transform="matrix(-1 -4.482826e-11 4.482826e-11 -1 1116.8862 734.6984)" class="st16" width="69.1" height="181.7"/>
	
		<rect x="538.8" y="290.1" transform="matrix(-1 -4.781743e-11 4.781743e-11 -1 1131.8601 596.412)" class="st16" width="54.2" height="16.3"/>
	
		<rect x="538.8" y="319.9" transform="matrix(-1 -4.355284e-11 4.355284e-11 -1 1131.8601 654.7092)" class="st16" width="54.2" height="14.9"/>
	
		<rect x="538.8" y="348.4" transform="matrix(-1 -3.952362e-11 3.952362e-11 -1 1131.8601 710.2949)" class="st16" width="54.2" height="13.6"/>
	
		<rect x="538.8" y="375.5" transform="matrix(-1 -3.969148e-11 3.969148e-11 -1 1131.8601 764.5248)" class="st16" width="54.2" height="13.6"/>
	
		<rect x="538.8" y="402.6" transform="matrix(-1 -3.989266e-11 3.989266e-11 -1 1131.8601 818.7548)" class="st16" width="54.2" height="13.6"/>
	
		<rect x="538.8" y="402.4" transform="matrix(-1 -3.969148e-11 3.969148e-11 -1 1131.8601 818.4274)" class="st16" width="54.2" height="13.6"/>
	
		<rect x="538.8" y="429.5" transform="matrix(-1 -3.969148e-11 3.969148e-11 -1 1131.8601 872.6573)" class="st16" width="54.2" height="13.6"/>
	<g>
		<rect x="758.1" y="338.3" class="st1" width="14.1" height="5.3"/>
		<rect x="746.2" y="346.3" class="st1" width="26" height="5.3"/>
		<rect x="738.1" y="330.3" class="st1" width="34.2" height="5.3"/>
		<rect x="756.4" y="354.3" class="st1" width="15.8" height="5.3"/>
		<circle class="st0" cx="719.8" cy="326.3" r="1.3"/>
		<line class="st0" x1="721.1" y1="326.3" x2="772" y2="326.3"/>
	</g>
	<g>
		
			<rect x="480.2" y="295.4" transform="matrix(-1 -4.462798e-11 4.462798e-11 -1 974.5167 596.2062)" class="st1" width="14.1" height="5.3"/>
		
			<rect x="480.2" y="287.4" transform="matrix(-1 -4.479362e-11 4.479362e-11 -1 986.0785 580.2259)" class="st1" width="25.7" height="5.3"/>
		<circle class="st0" cx="532.6" cy="283.4" r="1.3"/>
		<line class="st0" x1="531.3" y1="283.4" x2="480.5" y2="283.4"/>
	</g>
	<g>
		<path class="st5" d="M520.2,449.7c6.4,0,12.4,2.1,17.2,5.6c-0.3-1.8-0.4-3.7-0.4-5.6c0-20.9,16.9-37.8,37.8-37.8
			c10.9,0,20.7,4.6,27.6,12c0,0,0,0.1,0,0.1c0-0.1,0-0.1,0-0.1c6.9-24.3,22.1-37.5,47.3-36.8c42,1.2,47.4,46.9,46.8,50.1
			c6.1-4.2,13.4-6.6,21.3-6.6c20.9,0,37.8,16.9,37.8,37.8c0,2.2-0.2,4.4-0.6,6.6h-74.4h-30.7h-47H491.3
			C493.2,460.7,505.4,449.7,520.2,449.7z"/>
		<path class="st5" d="M598.3,420.1c0,0,11.4,9.1,14.2,21.8"/>
	</g>
</g>
<g>
	<path class="st5" d="M-295.1,425.8h-15.6v15.6l18.1,18.4c0-0.2,15.8-15.7,15.8-15.7L-295.1,425.8z M-302.1,438.1
		c-2.1,0-3.7-1.7-3.7-3.7c0-2.1,1.7-3.7,3.7-3.7c2.1,0,3.7,1.7,3.7,3.7C-298.4,436.5-300,438.1-302.1,438.1z"/>
</g>
<g>
	<path class="st5" d="M-295.1,340.6h-15.6v15.6l18.1,18.4c0-0.2,15.8-15.7,15.8-15.7L-295.1,340.6z M-302.1,353
		c-2.1,0-3.7-1.7-3.7-3.7c0-2.1,1.7-3.7,3.7-3.7c2.1,0,3.7,1.7,3.7,3.7C-298.4,351.3-300,353-302.1,353z"/>
</g>
<g>
	<path class="st2" d="M-300.8,359.5h-17.6c-0.4,0-0.7,0.3-0.7,0.7v17.4c0,0.4,0.2,0.8,0.5,1.1l20.4,20.7c0.4,0.4,1.1,0.4,1.6,0
		c3-3,13.9-13.8,17.2-17c0.5-0.5,0.5-1.4,0-1.9l-20.7-20.7C-300.3,359.6-300.6,359.5-300.8,359.5z M-308,374.2
		c-3,0.5-5.6-2.1-5.1-5.1c0.3-1.9,1.8-3.4,3.7-3.7c3-0.5,5.6,2.1,5.1,5.1C-304.6,372.4-306.1,374-308,374.2z"/>
</g>
</svg>
