<?xml version="1.0" encoding="utf-8"?>
<svg version="1.1" xmlns="http://www.w3.org/2000/svg" xmlns:xlink="http://www.w3.org/1999/xlink" x="0px" y="0px" viewBox="0 0 47 50.1" enable-background="new 0 0 47 50.1" xml:space="preserve">
  <path fill-rule="evenodd" clip-rule="evenodd" d="M46.5,44.5L30.8,50c-0.2,0.1-0.3,0.1-0.5,0l-14.6-4.6L1,50c-0.1,0-0.2,0-0.2,0
	c-0.2,0-0.3-0.1-0.5-0.2C0.1,49.7,0,49.5,0,49.3V23.4c0-0.3,0.2-0.6,0.5-0.7L15.4,18c0,0,0.1,0,0.1,0c0,0,0.1,0,0.1,0c0,0,0,0,0,0
	c0.1,0,0.1,0,0.2,0c0,0,0.1,0,0.1,0c0,0,0.1,0.1,0.1,0.1c0,0,0.1,0.1,0.1,0.1c0,0,0.1,0.1,0.1,0.1c0,0,0.1,0.1,0.1,0.1c0,0,0,0,0,0
	c0,0,0,0.1,0,0.1c0,0,0,0.1,0,0.1V44l13.3,4.2V25c-0.9,1.6-1.8,3-2.5,4.2c-0.5,0.8-1.4,1.3-2.4,1.3c0,0,0,0,0,0
	c-1,0-1.9-0.5-2.4-1.3c-3.1-4.9-8.2-13.9-8.2-18.6C14.3,4.8,19,0,24.9,0s10.6,4.8,10.6,10.6c0,2.7-1.7,6.9-3.8,10.8l14.2-5
	c0.2-0.1,0.5,0,0.7,0.1c0.2,0.1,0.3,0.4,0.3,0.6v26.6C47,44.1,46.8,44.4,46.5,44.5z M14.9,19.8L1.6,24v24.2L14.9,44V19.8z
	 M33.9,10.6c0-5-4.1-9-9-9s-9,4-9,9c0,3.2,2.9,9.7,8,17.8c0,0,0,0,0,0c0.2,0.4,0.6,0.6,1,0.6c0,0,0,0,0,0c0.4,0,0.8-0.2,1-0.6
	C31,20.3,33.9,13.8,33.9,10.6z M45.4,18.3l-14.1,4.9v25l14.1-4.9V18.3z M20,9.6c0-2.7,2.2-4.9,4.9-4.9s4.9,2.2,4.9,4.9
	s-2.2,4.9-4.9,4.9S20,12.3,20,9.6z M28.2,9.6c0-1.8-1.5-3.3-3.3-3.3c-1.8,0-3.3,1.5-3.3,3.3c0,1.8,1.5,3.3,3.3,3.3
	C26.7,12.9,28.2,11.4,28.2,9.6z" />
</svg>