<?xml version="1.0" encoding="utf-8"?>
<!-- Generator: Adobe Illustrator 23.0.2, SVG Export Plug-In . SVG Version: 6.00 Build 0)  -->
<svg version="1.1" id="Слой_1" xmlns="http://www.w3.org/2000/svg" xmlns:xlink="http://www.w3.org/1999/xlink" x="0px" y="0px"
	 viewBox="0 0 39.2 52" enable-background="new 0 0 39.2 52" xml:space="preserve">
<path fill="#333333" d="M39.6-0.6h-40v47h14.8v6.2l5.2-4.2l5.2,4.2v-6.2h14.8V-0.6z M18.3,41c-0.2,0-0.5-0.1-0.7-0.2
	c-0.6-0.2-1.3-0.6-1.8-1l0,0c-2.5-2-3.2-5.6-1.5-8.3c1.7-2.8,5.2-3.8,8.1-2.4c2.9,1.4,4.3,4.7,3.3,7.8C24.6,40,21.4,41.7,18.3,41
	L18.3,41z M24.8,40.9c1.7-1.5,2.6-3.6,2.6-5.8c0-3.6-2.4-6.7-5.9-7.6c-3.5-0.9-7.1,0.7-8.8,3.9c-1.7,3.2-1,7.1,1.7,9.5v0.3H10
	c-0.4-2.7-2.5-4.8-5.2-5.2V9.8C7.5,9.4,9.6,7.3,10,4.7h19.3c0.4,2.7,2.5,4.8,5.2,5.2V36c-2.7,0.4-4.8,2.5-5.2,5.2h-4.4V40.9z
	 M23.1,48.9l-3.5-2.8l-3.5,2.8v-6.8c0,0,0.1,0,0.1,0c2.1,1,4.6,1,6.8,0c0,0,0.1,0,0.1,0V48.9z M37.8,44.7h-13v-1.7h6.1v-0.9
	c0-2.4,1.9-4.3,4.3-4.3h0.9V8.1h-0.9c-2.4,0-4.3-1.9-4.3-4.3V2.9H8.3v0.9c0,2.4-1.9,4.3-4.3,4.3H3.1v29.6h0.9c2.4,0,4.3,1.9,4.3,4.3
	v0.9h6.1v1.7h-13V1.2h36.5V44.7z"/>
<path fill="#333333" d="M19.6,29.9c-2.9,0-5.2,2.3-5.2,5.2c0,2.9,2.3,5.2,5.2,5.2c2.9,0,5.2-2.3,5.2-5.2
	C24.8,32.2,22.5,29.9,19.6,29.9z M19.6,38.6c-1.9,0-3.5-1.6-3.5-3.5c0-1.9,1.6-3.5,3.5-3.5s3.5,1.6,3.5,3.5
	C23.1,37,21.5,38.6,19.6,38.6z"/>
<path fill="#333333" d="M17,6.4h5.2v1.7H17V6.4z"/>
<path fill="#333333" d="M14.4,9.9h10.4v1.7H14.4V9.9z"/>
<path fill="#333333" d="M8.3,13.4h22.6v1.7H8.3V13.4z"/>
<path fill="#333333" d="M8.3,16.8h22.6v1.7H8.3V16.8z"/>
<path fill="#333333" d="M8.3,20.3h22.6v1.7H8.3V20.3z"/>
<path fill="#333333" d="M8.3,23.8h19.1v1.7H8.3V23.8z"/>
<path fill="#333333" d="M29.1,23.8h1.7v1.7h-1.7V23.8z"/>
</svg>
