<?xml version="1.0" encoding="utf-8"?>
<!-- Generator: Adobe Illustrator 23.0.2, SVG Export Plug-In . SVG Version: 6.00 Build 0)  -->
<svg version="1.1" id="Слой_1" xmlns="http://www.w3.org/2000/svg" xmlns:xlink="http://www.w3.org/1999/xlink" x="0px" y="0px"
	 viewBox="0 0 49.5 48" enable-background="new 0 0 49.5 48" xml:space="preserve">
<path fill="#DEE0E0" d="M46.8,8h-9.6V4.4c0-2.5-2-4.4-4.4-4.4h-16c-2.5,0-4.4,2-4.4,4.4V8H2.7C1.2,8,0,9.2,0,10.7v19.8
	c0,1.1,0.7,2.1,1.8,2.5v12.4C1.8,46.8,3,48,4.4,48H45c1.5,0,2.7-1.2,2.7-2.7V33c1.1-0.4,1.8-1.4,1.8-2.5V10.7
	C49.5,9.2,48.3,8,46.8,8z M14.1,4.4c0-1.5,1.2-2.7,2.7-2.7h16c1.5,0,2.7,1.2,2.7,2.7V8h-1.8V4.4c0-0.5-0.4-0.9-0.9-0.9h-16
	c-0.5,0-0.9,0.4-0.9,0.9V8h-1.8V4.4z M31.9,8H17.6V5.3h14.2V8z M45.9,45.3c0,0.5-0.4,0.9-0.9,0.9H4.4c-0.5,0-0.9-0.4-0.9-0.9V33.3
	L21.2,36v2.3c0,1.5,1.2,2.7,2.7,2.7h1.8c1.5,0,2.7-1.2,2.7-2.7V36l17.6-2.7V45.3z M26.5,38.2c0,0.5-0.4,0.9-0.9,0.9h-1.8
	c-0.5,0-0.9-0.4-0.9-0.9v-5.3c0-0.5,0.4-0.9,0.9-0.9h1.8c0.5,0,0.9,0.4,0.9,0.9V38.2z M47.7,30.5c0,0.4-0.3,0.8-0.8,0.9l-0.2,0
	l-18.4,2.8v-1.3c0-1.5-1.2-2.7-2.7-2.7h-1.8c-1.5,0-2.7,1.2-2.7,2.7v1.3L2.5,31.3c-0.4-0.1-0.8-0.4-0.8-0.9V10.7
	c0-0.5,0.4-0.9,0.9-0.9h44.2c0.5,0,0.9,0.4,0.9,0.9V30.5z"/>
</svg>
