<?xml version="1.0" encoding="utf-8"?>
<!-- Generator: Adobe Illustrator 23.0.2, SVG Export Plug-In . SVG Version: 6.00 Build 0)  -->
<svg version="1.1" id="Layer_1" xmlns="http://www.w3.org/2000/svg" xmlns:xlink="http://www.w3.org/1999/xlink" x="0px" y="0px"
	 viewBox="0 0 35 35" enable-background="new 0 0 35 35" xml:space="preserve">
<circle fill="#4E598F" cx="17.5" cy="17.5" r="17.5"/>
<g>
	<path fill="#FFFFFF" d="M24.8,7.5H10.2c-1.5,0-2.7,1.2-2.7,2.7v14.6c0,1.5,1.2,2.7,2.7,2.7h7.2l0-7.2h-1.9c-0.2,0-0.4-0.2-0.4-0.4
		l0-2.3c0-0.2,0.2-0.4,0.4-0.4h1.9v-2.2c0-2.6,1.6-4,3.9-4h1.9c0.2,0,0.4,0.2,0.4,0.4v1.9c0,0.2-0.2,0.4-0.4,0.4l-1.2,0
		c-1.3,0-1.5,0.6-1.5,1.5v1.9h2.8c0.3,0,0.5,0.2,0.4,0.5L23.4,20c0,0.2-0.2,0.4-0.4,0.4h-2.5l0,7.2h4.3c1.5,0,2.7-1.2,2.7-2.7V10.2
		C27.5,8.7,26.3,7.5,24.8,7.5L24.8,7.5z"/>
	<polygon fill="#FFFFFF" points="17.4,27.5 17.4,20.4 17.4,20.4 17.4,27.5 	"/>
</g>
</svg>
