<?xml version="1.0" encoding="utf-8"?>
<!-- Generator: Adobe Illustrator 23.0.2, SVG Export Plug-In . SVG Version: 6.00 Build 0)  -->
<svg version="1.1" id="Capa_1" xmlns="http://www.w3.org/2000/svg" xmlns:xlink="http://www.w3.org/1999/xlink" x="0px" y="0px"
	 viewBox="0 0 65 65" enable-background="new 0 0 65 65" xml:space="preserve">
<circle fill="#FFFFFF" cx="32.5" cy="32.5" r="32.5"/>
<path fill="#EFECEC" d="M63.1,21.7h-20c0.9,6.9,0.9,14.6,0,21.5h20.1c1.2-3.4,1.8-7,1.8-10.7C65,28.7,64.3,25.1,63.1,21.7z"/>
<path fill="#E63026" d="M43.1,21.7h20c0,0,0,0,0,0C59,9.9,48.3,1.3,35.4,0.1C40.4,2.9,41.8,11.5,43.1,21.7z"/>
<path fill="#2B479D" d="M35.4,64.9c12.9-1.1,23.6-9.8,27.7-21.6c0,0,0-0.1,0-0.1H43.1C41.9,53.4,40.4,62.1,35.4,64.9z"/>
<path fill="#EFEFEF" d="M0,32.5c0,3.8,0.6,7.4,1.8,10.7h43c0.9-7,0.9-14.6,0-21.5H1.9C0.7,25.1,0,28.7,0,32.5z"/>
<path fill="#E73B36" d="M1.9,21.6C1.9,21.6,1.9,21.7,1.9,21.6l42.9,0c-1.3-10.2-4.4-18.8-9.4-21.5C34.5,0,33.5,0,32.5,0
	C18.4,0,6.3,9,1.9,21.6z"/>
<path fill="#3757A6" d="M44.8,43.2h-43c0,0,0,0.1,0,0.1C6.3,55.9,18.3,65,32.5,65c1,0,2,0,2.9-0.1C40.4,62.1,43.5,53.4,44.8,43.2z"
	/>
</svg>
