<?xml version="1.0" encoding="utf-8"?>
<!-- Generator: Adobe Illustrator 23.0.2, SVG Export Plug-In . SVG Version: 6.00 Build 0)  -->
<svg version="1.1" id="Слой_1" xmlns="http://www.w3.org/2000/svg" xmlns:xlink="http://www.w3.org/1999/xlink" x="0px" y="0px"
	 viewBox="0 0 55 59.3" enable-background="new 0 0 55 59.3" xml:space="preserve">
<path fill="#333333" d="M54.1,22.8L49,22.3c-0.5-2.2-1.4-4.2-2.6-6.2l3.3-3.9c0.3-0.4,0.3-0.9-0.1-1.3l-5.5-5.5
	C43.8,5,43.2,5,42.8,5.3l-3.9,3.3c-1.9-1.2-4-2-6.2-2.6l-0.5-5.1c0-0.5-0.5-0.9-1-0.9h-7.5c-0.5,0-0.9,0.4-1,0.9L22.3,6
	c-2.2,0.6-4.2,1.4-6.2,2.6l-3.9-3.3C11.8,5,11.2,5,10.9,5.4l-5.5,5.5C5,11.3,5,11.8,5.3,12.2l3.3,3.9c-1.2,1.9-2.1,4-2.6,6.2
	l-5.1,0.5c-0.5,0-0.9,0.5-0.9,1v7.8c0,0.5,0.4,0.9,0.9,1L6,33c0.6,2.2,1.4,4.2,2.6,6.2l-3.3,3.9c-0.3,0.4-0.3,1,0.1,1.3l4.2,3.7
	c0.2,0.2,0.5,0.3,0.8,0.2c0.3,0,0.5-0.2,0.7-0.4l6-8.6c0.3-0.4,0.2-0.9-0.1-1.2c-5.8-5.8-5.8-15.1,0-20.9s15.1-5.8,20.9,0
	s5.8,15.1,0,20.9c-0.3,0.3-0.4,0.9-0.1,1.3L44,48c0.2,0.2,0.4,0.4,0.7,0.4c0.3,0,0.5-0.1,0.7-0.2l4.2-3.7c0.4-0.3,0.4-0.9,0.1-1.3
	l-3.3-3.9c1.2-1.9,2-4,2.6-6.2l5.1-0.5c0.5,0,0.9-0.5,0.9-1v-7.8C55,23.2,54.6,22.8,54.1,22.8z M53.1,30.7l-4.9,0.5
	c-0.4,0-0.8,0.3-0.9,0.8c-0.5,2.4-1.5,4.7-2.9,6.8c-0.2,0.4-0.2,0.8,0.1,1.1l3.1,3.7L44.9,46l-5.1-7.1c5.9-6.6,5.8-16.7-0.6-23
	c-6.5-6.5-17.1-6.5-23.6,0C9.2,22.2,9.1,32.3,15,38.9L10.1,46l-2.7-2.4l3.1-3.7c0.3-0.3,0.3-0.8,0.1-1.1c-1.4-2.1-2.3-4.4-2.9-6.8
	c-0.1-0.4-0.4-0.7-0.8-0.8l-4.9-0.5v-6.1l4.9-0.5c0.4,0,0.8-0.3,0.9-0.8c0.5-2.4,1.5-4.7,2.9-6.8c0.2-0.4,0.2-0.8-0.1-1.2l-3.1-3.8
	l4.3-4.3l3.8,3.1c0.3,0.3,0.8,0.3,1.1,0.1c2.1-1.4,4.4-2.3,6.8-2.9c0.4-0.1,0.7-0.4,0.8-0.9l0.5-4.9h5.8l0.5,4.9
	c0,0.4,0.3,0.8,0.8,0.9c2.4,0.5,4.7,1.5,6.8,2.9c0.4,0.2,0.8,0.2,1.1-0.1l3.8-3.1l4.3,4.3l-3.1,3.8c-0.3,0.3-0.3,0.8-0.1,1.2
	c1.4,2.1,2.3,4.4,2.9,6.8c0.1,0.4,0.4,0.7,0.8,0.8l4.9,0.5V30.7z"/>
<path fill="#333333" d="M30.9,44.7V30c2.4-1.4,4-4.1,4-6.8c0-3.8-2.2-6.5-5.8-7.3c-0.3-0.1-0.6,0-0.8,0.2c-0.2,0.2-0.4,0.5-0.3,0.8
	l0.3,4.1c-0.8,0.4-1.8,0.4-2.6,0l0.3-4.1c0-0.3-0.1-0.6-0.4-0.8s-0.6-0.3-0.9-0.2c-3.3,1-5.4,3.8-5.4,7.4c0,3.3,1.7,6,4.6,7.2V45
	c-2.1,1.2-4,3.7-4,6.8c0,3.7,2.1,6.5,5.7,7.4c0.3,0.1,0.6,0,0.9-0.2c0.2-0.2,0.4-0.5,0.3-0.8l-0.3-4.1c0.8-0.4,1.8-0.4,2.6,0
	l-0.3,4.1c0,0.3,0.1,0.6,0.4,0.8c0.2,0.2,0.6,0.3,0.9,0.2c3.3-1,5.3-3.8,5.4-7.4C35.5,48.6,33.8,45.9,30.9,44.7z M31,56.8l0.3-3.1
	c0-0.3-0.1-0.7-0.4-0.9l0,0c-1.7-1.3-4.1-1.3-5.8,0c-0.3,0.2-0.4,0.5-0.4,0.8l0.2,3.2c-1.9-0.9-2.9-2.7-2.9-5c0-2.5,1.8-4.6,3.5-5.3
	c0.3-0.2,0.6-0.5,0.6-0.9V29.7c0-0.4-0.3-0.8-0.7-0.9c-2.4-0.7-4-2.9-4-5.6c0-2.2,1-4,2.6-5l-0.3,3.1c0,0.3,0.1,0.7,0.4,0.9l0,0
	c1.7,1.3,4.1,1.3,5.8,0c0,0,0,0,0,0c0.2-0.2,0.4-0.5,0.3-0.8L30,18.1c1.9,0.9,3,2.7,3,5c0,2.2-1.4,4.4-3.5,5.4
	c-0.3,0.2-0.6,0.5-0.6,0.9v16c0,0.4,0.3,0.8,0.7,0.9c2.4,0.7,4,2.9,4,5.5C33.6,54,32.6,55.8,31,56.8L31,56.8z"/>
</svg>
