<?xml version="1.0" encoding="utf-8"?>
<!-- Generator: Adobe Illustrator 23.0.2, SVG Export Plug-In . SVG Version: 6.00 Build 0)  -->
<svg version="1.1" id="Capa_1" xmlns="http://www.w3.org/2000/svg" xmlns:xlink="http://www.w3.org/1999/xlink" x="0px" y="0px"
	 viewBox="0 0 48.9 50" enable-background="new 0 0 48.9 50" xml:space="preserve">
<g>
	<g>
		<path fill="#DEE0E0" d="M35.9,2.8C32.4,1,28.5,0,24.5,0C11,0,0,11,0,24.5C0,30.9,2.5,37,6.9,41.6l-1,7.3c-0.1,0.5,0.3,1,0.8,1.1
			c0.2,0,0.5,0,0.7-0.1l5.6-3.7c12,6.3,26.8,1.8,33.1-10.2S47.9,9.2,35.9,2.8z M40.6,40.4c-4.2,4.3-10,6.7-16.1,6.7
			c-3.9,0-7.7-1-11.1-2.9c-0.3-0.2-0.7-0.2-1,0L8.1,47l0.8-5.6c0-0.3-0.1-0.6-0.3-0.8c-8.9-8.8-9-23-0.2-31.9s23-9,31.9-0.2
			S49.3,31.5,40.6,40.4z"/>
	</g>
</g>
<g>
	<g>
		<path fill="#DEE0E0" d="M30,33.2h-0.8V18.9c0-0.5-0.4-1-1-1h-8.3c-0.5,0-1,0.4-1,1v3.5c0,0.5,0.4,1,1,1h0.8v9.8h-0.8
			c-0.5,0-1,0.4-1,1v3.5c0,0.5,0.4,1,1,1H30c0.5,0,1-0.4,1-1v-3.5C31,33.6,30.6,33.2,30,33.2z M20.9,36.6v-1.5h0.8c0.5,0,1-0.4,1-1
			V22.4c0-0.5-0.4-1-1-1h-0.8v-1.5h6.4v14.3c0,0.5,0.4,1,1,1h0.8l0,1.5L20.9,36.6L20.9,36.6z"/>
	</g>
</g>
<g>
	<g>
		<path fill="#DEE0E0" d="M24.5,8.5c-2.2,0-4,1.8-4,4s1.8,4,4,4s4-1.8,4-4S26.7,8.5,24.5,8.5z M24.5,14.7c-1.2,0-2.1-0.9-2.1-2.1
			c0-1.2,0.9-2.1,2.1-2.1c0,0,0,0,0,0v0c1.2,0,2.1,0.9,2.1,2.1S25.7,14.7,24.5,14.7z"/>
	</g>
</g>
</svg>
