<?xml version="1.0" standalone="no"?>
<!DOCTYPE svg PUBLIC "-//W3C//DTD SVG 20010904//EN"
 "http://www.w3.org/TR/2001/REC-SVG-20010904/DTD/svg10.dtd">
<svg version="1.0" xmlns="http://www.w3.org/2000/svg"
 width="2658.000000pt" height="392.000000pt" viewBox="0 0 2658.000000 392.000000"
 preserveAspectRatio="xMidYMid meet">

<g transform="translate(0.000000,392.000000) scale(0.100000,-0.100000)"
fill="#000000" stroke="none">
<path d="M21930 3885 c-158 -22 -227 -42 -365 -111 -142 -70 -292 -193 -377
-309 -4 -5 -19 -24 -33 -41 -14 -18 -25 -35 -25 -39 0 -11 -27 -34 -33 -28 -4
3 -28 -5 -54 -18 -41 -20 -63 -24 -158 -24 -123 0 -132 3 -295 80 -41 19 -111
58 -155 86 -183 117 -456 234 -535 230 -27 -1 -32 1 -20 10 12 8 8 10 -18 6
-18 -2 -35 0 -38 5 -3 4 -16 8 -30 8 -13 0 -24 5 -24 10 0 6 -11 10 -25 10
-14 0 -33 4 -43 10 -9 5 -46 14 -82 20 -36 6 -90 16 -120 21 -89 17 -366 22
-460 10 -80 -11 -104 -16 -220 -43 -175 -41 -342 -110 -525 -217 -38 -23 -78
-41 -88 -41 -12 0 -16 -4 -11 -12 6 -10 4 -10 -7 0 -7 6 -33 12 -59 12 -93 0
-192 43 -431 186 -31 19 -64 34 -72 34 -9 0 -18 4 -21 9 -3 5 -17 11 -30 13
-21 4 -26 1 -29 -21 -4 -25 -4 -25 -6 3 -1 32 -39 73 -74 81 -12 3 -202 5
-422 3 -363 -3 -403 -5 -428 -21 -42 -28 -58 -61 -67 -139 -4 -40 -8 -63 -9
-50 -1 28 -4 28 -91 -8 -72 -30 -162 -41 -174 -21 -3 5 -23 12 -43 16 -21 4
-42 10 -48 15 -5 4 -35 18 -65 30 -30 13 -82 35 -115 51 -33 16 -84 38 -112
49 -49 18 -53 18 -54 2 0 -13 -2 -12 -9 4 -5 12 -24 34 -43 48 l-35 27 -410
-3 c-399 -3 -411 -4 -439 -24 -45 -34 -62 -93 -62 -221 -1 -82 -5 -115 -15
-126 -47 -46 -56 -239 -56 -1182 -1 -792 -3 -869 -34 -1100 -18 -139 -76 -310
-114 -337 -10 -7 -21 -21 -25 -31 -5 -12 -17 -17 -47 -17 -22 0 -40 5 -40 10
0 6 -6 10 -13 10 -20 0 -122 112 -170 187 -42 65 -94 169 -150 298 -40 93 -57
143 -197 575 -50 157 -132 409 -181 560 -49 151 -95 295 -103 320 -74 232
-178 548 -186 562 -6 10 -10 22 -10 28 0 17 -71 158 -86 171 -8 6 -14 17 -14
25 0 7 -35 48 -78 91 -55 56 -97 87 -146 111 -54 27 -71 31 -77 20 -7 -10 -9
-10 -9 0 0 7 -8 21 -17 30 -43 42 -52 43 -453 40 l-385 -3 -31 -24 c-33 -24
-47 -47 -70 -121 -8 -25 -19 -54 -24 -65 -5 -11 -16 -42 -25 -70 -9 -27 -21
-58 -26 -67 -5 -10 -9 -25 -9 -33 0 -8 -4 -23 -9 -33 -17 -32 -30 -67 -46
-122 -9 -30 -20 -64 -24 -75 -5 -11 -13 -31 -18 -45 -6 -14 -18 -52 -28 -85
-10 -33 -22 -64 -27 -70 -4 -5 -8 -19 -8 -32 0 -13 -4 -23 -9 -23 -5 0 -12
-20 -15 -45 -4 -24 -11 -47 -17 -50 -5 -4 -9 -17 -9 -31 0 -13 -4 -24 -10 -24
-5 0 -10 -11 -10 -25 0 -14 -4 -25 -9 -25 -5 0 -12 -20 -15 -45 -4 -24 -11
-47 -17 -50 -5 -4 -9 -18 -10 -33 0 -24 -1 -25 -8 -7 -8 18 -10 16 -27 -17
-10 -21 -21 -38 -26 -38 -4 0 -8 -6 -8 -13 0 -8 -11 -24 -25 -37 -14 -13 -25
-29 -25 -37 0 -7 -3 -13 -7 -13 -5 0 -24 -15 -43 -33 -19 -18 -50 -41 -69 -50
-37 -18 -141 -23 -141 -7 0 6 -6 10 -14 10 -8 0 -24 12 -35 28 -12 15 -25 32
-30 38 -18 22 -80 161 -96 214 -9 30 -27 89 -40 130 -13 41 -33 106 -45 144
-19 61 -68 166 -118 251 -71 122 -225 281 -353 366 -155 102 -340 186 -382
173 -13 -4 -17 -2 -12 5 5 8 -1 10 -19 5 -16 -4 -26 -2 -26 5 0 6 -9 11 -20
11 -11 0 -20 4 -20 9 0 5 -25 12 -55 16 -30 3 -57 11 -60 16 -4 5 -21 9 -39 9
-17 0 -37 5 -43 11 -16 16 -446 28 -828 22 -300 -4 -385 -11 -385 -32 0 -3
-52 -5 -115 -3 -81 2 -115 0 -115 -8 0 -6 -13 -2 -30 10 -29 21 -35 21 -453
18 -369 -3 -426 -5 -448 -19 -28 -19 -38 -37 -74 -139 -15 -41 -30 -84 -35
-95 -5 -11 -20 -54 -35 -95 -14 -41 -30 -83 -36 -92 -5 -10 -9 -27 -9 -38 0
-11 -4 -20 -10 -20 -5 0 -10 -12 -10 -27 0 -22 -2 -25 -10 -13 -7 11 -10 5
-11 -25 0 -28 -3 -34 -8 -21 -6 16 -10 14 -35 -18 -69 -92 -153 -150 -231
-163 -30 -5 -135 31 -135 46 0 4 -13 15 -29 24 -29 17 -121 128 -121 146 0 5
-4 11 -8 13 -5 2 -30 44 -57 93 -55 103 -97 167 -140 216 -77 86 -239 185
-256 157 -7 -10 -9 -10 -9 2 0 8 -18 28 -40 43 l-39 28 -419 -3 c-385 -3 -420
-4 -446 -21 -51 -34 -64 -88 -85 -377 -6 -83 -8 -93 -10 -45 -2 68 -12 60 -29
-25 -21 -102 -32 -204 -42 -375 -6 -93 -15 -242 -20 -330 -15 -223 -40 -632
-45 -740 -3 -49 -10 -139 -15 -200 -9 -103 -14 -186 -40 -620 -6 -93 -15 -237
-20 -320 -13 -202 -12 -422 1 -487 22 -105 77 -203 148 -265 l26 -22 3489 0
3489 0 99 60 c179 108 247 133 373 133 136 1 241 -32 362 -114 24 -17 46 -30
49 -30 2 0 22 -11 44 -25 l40 -25 579 0 c319 0 582 4 585 9 3 4 31 16 63 25
32 10 67 21 78 26 86 37 132 35 244 -7 36 -14 76 -27 89 -30 12 -3 25 -9 28
-14 3 -5 255 -9 570 -9 l565 0 52 24 c29 13 79 34 112 47 33 13 64 27 70 31 5
4 34 8 65 8 56 0 110 -16 235 -71 90 -39 86 -39 632 -39 602 0 515 -11 685 87
116 67 171 83 281 83 116 0 240 -29 382 -90 204 -88 123 -80 831 -80 695 0
660 -3 799 64 28 13 68 32 90 42 34 15 156 83 205 114 137 85 275 130 403 130
137 0 215 -36 468 -215 63 -45 136 -94 162 -109 l48 -26 685 0 685 0 55 35
c30 19 58 35 63 35 5 0 11 4 13 8 3 8 111 91 217 168 99 72 207 120 290 130
54 6 67 4 116 -22 45 -22 78 -54 173 -164 64 -75 133 -149 154 -163 l36 -27
499 0 500 0 47 46 c27 27 62 77 82 119 68 141 66 109 74 970 5 498 11 800 18
834 15 72 59 195 89 250 28 50 116 140 195 199 102 77 189 170 241 261 70 121
91 247 84 496 -5 187 -26 303 -64 362 -9 14 -24 38 -32 53 -40 72 -172 179
-225 183 -11 1 -36 16 -55 34 -26 24 -47 34 -85 38 -28 4 -500 5 -1048 3 -991
-3 -997 -3 -1024 -24 -35 -25 -62 -71 -64 -104 0 -21 -2 -22 -10 -9 -8 14 -17
15 -52 7 -55 -13 -295 -2 -368 16 -30 7 -97 26 -147 40 -51 15 -101 26 -110
25 -17 -2 -29 1 -78 21 -59 23 -156 45 -295 65 -112 17 -144 17 -270 0z m677
-101 c-3 -3 -12 -4 -19 -1 -8 3 -5 6 6 6 11 1 17 -2 13 -5z m-332 -24 c177
-38 303 -93 436 -191 218 -161 360 -425 371 -689 l3 -65 -380 0 -380 0 -6 37
c-8 48 -32 83 -77 111 -62 39 -103 51 -171 51 -85 1 -148 -28 -187 -87 -25
-36 -29 -52 -29 -112 0 -61 4 -76 30 -115 40 -60 141 -111 367 -185 280 -92
388 -141 518 -236 403 -295 541 -870 315 -1319 -154 -305 -432 -515 -777 -584
-104 -21 -352 -21 -456 0 -257 52 -489 194 -651 398 -141 177 -241 449 -241
652 l0 54 379 0 379 0 6 -53 c14 -111 98 -227 201 -277 44 -22 64 -25 155 -25
94 0 111 3 162 28 66 32 116 77 153 141 23 39 26 57 26 129 1 104 -22 158 -92
221 -61 55 -95 71 -303 140 -366 124 -491 187 -641 328 -70 65 -168 203 -211
296 -102 222 -118 481 -43 716 83 260 308 494 574 596 161 62 394 78 570 40z
m-12349 -45 c319 -56 608 -258 736 -518 72 -145 83 -194 83 -372 0 -172 -10
-225 -72 -356 l-26 -57 102 -98 c157 -150 267 -330 315 -514 23 -89 32 -305
17 -410 -59 -403 -389 -764 -826 -902 -193 -61 -209 -63 -825 -63 l-565 0 -3
1640 c-1 902 0 1646 3 1653 7 20 943 17 1061 -3z m15474 -365 l0 -380 -315 0
-315 0 -2 -1272 -3 -1273 -360 -3 c-198 -1 -369 0 -380 2 -20 5 -20 13 -20
1273 l0 1268 -313 5 -313 5 1 373 c0 204 0 374 0 377 0 3 455 5 1010 5 l1010
0 0 -380z m-19149 343 c6 -16 38 -104 71 -198 33 -93 75 -215 95 -270 19 -55
41 -118 48 -140 8 -22 39 -112 70 -200 32 -88 63 -178 70 -200 8 -22 38 -110
68 -195 30 -85 85 -240 122 -345 36 -104 73 -208 81 -230 7 -22 29 -82 46
-133 18 -52 37 -94 42 -94 6 1 20 31 32 69 28 85 152 449 279 818 53 154 111
325 130 380 19 55 77 226 130 380 53 154 104 303 113 330 l17 50 391 3 391 2
7 -57 c3 -32 10 -146 16 -253 5 -107 14 -265 20 -350 15 -236 29 -468 45 -760
14 -251 21 -376 45 -760 5 -91 17 -284 25 -430 8 -146 20 -346 26 -445 6 -99
10 -193 8 -210 l-4 -30 -375 0 -375 0 -11 145 c-7 80 -19 280 -28 445 -9 165
-21 355 -26 423 -6 68 -10 161 -10 208 0 78 -10 108 -23 67 -5 -16 -75 -222
-316 -928 -40 -116 -82 -239 -93 -275 -12 -36 -26 -71 -31 -78 -7 -9 -96 -12
-383 -12 -355 0 -374 1 -383 19 -6 10 -21 52 -35 92 -13 41 -57 166 -96 279
-39 113 -82 237 -95 275 -13 39 -40 115 -59 170 -19 55 -67 192 -106 305 -39
112 -74 208 -79 213 -10 10 -13 -23 -36 -403 -30 -491 -36 -587 -46 -690 -5
-58 -9 -138 -9 -177 0 -67 -2 -73 -22 -78 -13 -3 -185 -4 -383 -3 l-360 3 2
110 c1 61 7 180 13 265 24 358 31 457 45 695 8 138 19 311 25 385 13 194 28
429 45 710 14 227 20 314 45 680 5 74 12 196 15 270 3 74 8 145 11 158 l4 22
390 0 390 0 11 -27z m6744 -13 c7 -19 48 -143 90 -275 42 -132 85 -265 95
-295 29 -89 131 -405 225 -695 47 -148 95 -295 105 -325 10 -30 53 -163 95
-295 43 -132 92 -285 110 -340 18 -55 53 -163 78 -240 178 -552 221 -686 237
-732 10 -29 15 -54 12 -57 -3 -4 -180 -6 -393 -6 -298 0 -391 3 -400 13 -6 6
-39 95 -73 197 l-61 185 -518 0 -518 0 -62 -185 c-35 -102 -66 -191 -70 -197
-6 -10 -98 -13 -402 -13 -217 0 -396 3 -399 8 -2 4 4 32 14 62 11 30 62 181
115 335 53 154 112 325 130 380 63 188 193 570 315 925 67 195 137 400 155
455 19 55 88 260 155 455 67 195 144 423 172 505 28 83 55 156 61 163 7 9 88
12 364 10 l355 -3 13 -35z m2725 -605 l5 -640 470 0 470 0 3 643 2 642 378 -2
377 -3 0 -1645 0 -1645 -375 0 -375 0 -5 620 -5 620 -472 3 -473 2 -2 -622 -3
-623 -375 0 -375 0 -3 1648 -2 1647 377 -2 378 -3 5 -640z m3671 635 c141 -14
234 -34 359 -76 639 -217 1084 -786 1128 -1444 21 -305 -32 -576 -165 -848
-235 -478 -690 -810 -1238 -903 -90 -15 -400 -15 -490 0 -350 59 -658 213
-903 451 -144 140 -237 268 -328 450 -135 271 -192 567 -166 862 14 162 32
251 79 388 83 248 218 465 401 646 352 351 834 523 1323 474z m556 -16 c-3 -3
-12 -4 -19 -1 -8 3 -5 6 6 6 11 1 17 -2 13 -5z m-8200 -1126 c-3 -7 -5 -2 -5
12 0 14 2 19 5 13 2 -7 2 -19 0 -25z"/>
<path d="M9630 2825 l0 -148 103 5 c117 6 177 28 227 84 38 44 38 74 0 118
-51 58 -108 79 -227 84 l-103 5 0 -148z"/>
<path d="M9630 1550 l0 -363 168 6 c148 4 175 8 236 31 131 49 221 120 269
210 30 57 30 163 0 228 -41 89 -139 167 -272 216 -57 21 -90 25 -233 29 l-168
6 0 -363z"/>
<path d="M12592 2307 c-11 -28 -45 -124 -75 -212 -30 -88 -80 -236 -112 -328
-31 -93 -55 -170 -53 -172 8 -8 513 -6 513 2 0 4 -26 87 -57 183 -154 472
-178 546 -178 557 0 32 -20 17 -38 -30z"/>
<path d="M19105 2944 c-132 -19 -275 -78 -390 -159 -437 -311 -496 -935 -126
-1318 115 -120 233 -192 396 -243 83 -26 102 -28 245 -28 154 0 193 6 306 47
242 88 452 303 534 550 102 304 30 636 -189 869 -127 136 -253 212 -436 264
-50 14 -282 26 -340 18z m338 -615 c92 -14 155 -39 220 -88 87 -65 128 -118
168 -216 21 -52 24 -76 24 -180 0 -103 -3 -128 -24 -180 -13 -33 -37 -77 -52
-97 -33 -42 -39 -63 -9 -28 11 13 20 19 20 13 0 -17 -38 -45 -51 -37 -8 4 -10
3 -5 -5 8 -13 -50 -71 -71 -71 -6 0 -13 -3 -15 -7 -5 -13 -65 -43 -83 -43 -9
0 -13 -4 -10 -10 4 -6 -5 -10 -19 -10 -14 0 -26 -4 -26 -10 0 -5 -7 -10 -15
-10 -8 0 -15 4 -15 9 0 4 -24 4 -52 -1 -29 -4 -75 -6 -103 -3 -70 9 -179 43
-209 66 -13 10 -28 19 -33 19 -25 0 -117 111 -154 184 -71 145 -71 297 0 442
37 73 129 184 154 184 5 0 20 9 33 19 36 28 154 63 237 70 10 0 51 -4 90 -10z
m24 -985 c-3 -3 -12 -4 -19 -1 -8 3 -5 6 6 6 11 1 17 -2 13 -5z m-64 -21 c-7
-2 -19 -2 -25 0 -7 3 -2 5 12 5 14 0 19 -2 13 -5z"/>
</g>
</svg>
