<?xml version="1.0" encoding="utf-8"?>
<!-- Generator: Adobe Illustrator 23.0.2, SVG Export Plug-In . SVG Version: 6.00 Build 0)  -->
<svg version="1.1" id="Layer_1" xmlns="http://www.w3.org/2000/svg" xmlns:xlink="http://www.w3.org/1999/xlink" x="0px" y="0px"
	 viewBox="0 0 45 45" enable-background="new 0 0 45 45" xml:space="preserve">
<g>
	<g>
		<g>
			<path fill="#333333" d="M36.3,21V3.6c0-2-1.6-3.6-3.6-3.6h-29C1.6,0,0,1.6,0,3.6V21c0,2,1.6,3.6,3.6,3.6h29
				C34.7,24.7,36.3,23,36.3,21z M1.5,3.6c0-1.2,1-2.2,2.2-2.2h29c1.2,0,2.2,1,2.2,2.2v0.7H1.5V3.6z M1.5,5.8h33.4v3.6H1.5V5.8z
				 M1.5,21V10.9h33.4V21c0,1.2-1,2.2-2.2,2.2h-29C2.4,23.2,1.5,22.2,1.5,21z"/>
			<path fill="#333333" d="M29,13.1c-0.6,0-1.2,0.1-1.8,0.4c-0.6-0.3-1.2-0.4-1.8-0.4c-2.4,0-4.4,2-4.4,4.4s2,4.4,4.4,4.4
				c0.6,0,1.2-0.1,1.8-0.4c0.6,0.3,1.2,0.4,1.8,0.4c2.4,0,4.4-2,4.4-4.4S31.4,13.1,29,13.1z M29,20.3c-0.5,0-1-0.1-1.4-0.4l-0.4-0.2
				l-0.4,0.2c-0.5,0.3-0.9,0.4-1.4,0.4c-1.6,0-2.9-1.3-2.9-2.9c0-1.6,1.3-2.9,2.9-2.9c0.5,0,1,0.1,1.4,0.4l0.4,0.2l0.4-0.2
				c0.5-0.3,0.9-0.4,1.4-0.4c1.6,0,2.9,1.3,2.9,2.9C31.9,19,30.6,20.3,29,20.3z"/>
			<path fill="#333333" d="M35.6,26.1c-2.9,0-5.5,1.3-7.3,3.4c-1.8-2.2-4.4-3.4-7.3-3.4c-5.2,0-9.4,4.2-9.4,9.4S15.8,45,21,45
				c2.8,0,5.5-1.3,7.3-3.4c1.7,2.1,4.3,3.4,7.3,3.4c5.2,0,9.4-4.2,9.4-9.4S40.8,26.1,35.6,26.1z M27.4,40.3c-1.5,2-3.9,3.2-6.4,3.2
				c-4.4,0-8-3.6-8-8c0-4.4,3.6-8,8-8c2.5,0,4.9,1.2,6.4,3.2c-0.8,1.4-1.3,3-1.3,4.8C26.1,37.3,26.6,38.9,27.4,40.3z M35.6,43.5
				c-4.4,0-8-3.6-8-8c0-4.4,3.6-8,8-8c4.4,0,8,3.6,8,8C43.5,40,40,43.5,35.6,43.5z"/>
			<path fill="#333333" d="M34.1,31.9H37c0.8,0,1.5,0.7,1.5,1.5h1.5c0-1.6-1.3-2.9-2.9-2.9h-0.7V29h-1.5v1.5h-0.7
				c-1.6,0-2.9,1.3-2.9,2.9c0,1.6,1.3,2.9,2.9,2.9H37c0.8,0,1.5,0.7,1.5,1.5s-0.7,1.5-1.5,1.5h-2.9c-0.8,0-1.5-0.7-1.5-1.5h-1.5
				c0,1.6,1.3,2.9,2.9,2.9h0.7v1.5h1.5v-1.5H37c1.6,0,2.9-1.3,2.9-2.9s-1.3-2.9-2.9-2.9h-2.9c-0.8,0-1.5-0.7-1.5-1.5
				S33.3,31.9,34.1,31.9z"/>
			<polygon fill="#333333" points="25.2,31.7 24.2,30.7 21,33.8 17.9,30.7 16.9,31.7 20.3,35.1 20.3,35.6 17.4,35.6 17.4,37 
				20.3,37 20.3,38.5 17.4,38.5 17.4,39.9 20.3,39.9 20.3,41.4 21.8,41.4 21.8,39.9 24.7,39.9 24.7,38.5 21.8,38.5 21.8,37 24.7,37 
				24.7,35.6 21.8,35.6 21.8,35.1 			"/>
		</g>
	</g>
</g>
</svg>
