<?xml version="1.0" encoding="utf-8"?>
<!-- Generator: Adobe Illustrator 23.0.2, SVG Export Plug-In . SVG Version: 6.00 Build 0)  -->
<svg version="1.1" id="Layer_1" xmlns="http://www.w3.org/2000/svg" xmlns:xlink="http://www.w3.org/1999/xlink" x="0px" y="0px"
	 viewBox="0 0 35 35" enable-background="new 0 0 35 35" xml:space="preserve">
<circle fill="#7AA5DA" cx="17.5" cy="17.5" r="17.5"/>
<path fill="#FFFFFF" d="M26.2,9.1c0.7-0.3,1.4,0.3,1.3,1.1l-3.1,15c-0.1,0.7-1,1-1.5,0.6l-4.7-3.5l-2.4,2.5
	c-0.4,0.4-1.2,0.3-1.3-0.3l-1.7-5.5L8,17.5c-0.6-0.2-0.6-1-0.1-1.3L26.2,9.1z M23.9,12.4c0.2-0.2,0-0.5-0.3-0.4l-10,6.2
	c-0.2,0.1-0.3,0.3-0.2,0.5l1.4,6c0,0.1,0.2,0.1,0.2,0l0.3-4.6c0-0.1,0.1-0.2,0.2-0.3L23.9,12.4z"/>
<path fill="#9EC2E5" d="M23.7,12.1c0.2-0.1,0.5,0.2,0.3,0.4L15.4,20c-0.1,0.1-0.1,0.2-0.2,0.3L15,24.9c0,0.1-0.1,0.1-0.2,0l-1.4-6
	c-0.1-0.2,0-0.4,0.2-0.5L23.7,12.1z"/>
<path fill="#FFFFFF" d="M14.8,24.9c-0.2-0.1-0.4-0.3-0.5-0.5l-1.7-5.5L8,17.5c-0.6-0.2-0.6-1-0.1-1.3l18.3-7.1
	c0.5-0.2,0.9,0,1.1,0.4c0-0.1-0.1-0.1-0.1-0.2L14.8,19.5v0.4l-0.1,0l0.1,2.8L14.8,24.9C14.8,24.9,14.8,24.9,14.8,24.9L14.8,24.9
	L14.8,24.9z"/>
<g>
	<path fill="#DADDE0" d="M15.6,24.8C15.6,24.8,15.6,24.8,15.6,24.8L15.6,24.8C15.6,24.8,15.6,24.8,15.6,24.8z"/>
	<path fill="#DADDE0" d="M15.6,24.8L15.6,24.8C15.6,24.8,15.6,24.8,15.6,24.8C15.6,24.8,15.6,24.8,15.6,24.8z"/>
	<path fill="#DADDE0" d="M15.4,24.9c0,0,0.1,0,0.1-0.1C15.5,24.9,15.5,24.9,15.4,24.9z"/>
	<path fill="#DADDE0" d="M15,25c0.1,0,0.2,0,0.3,0C15.3,25,15.2,25,15,25C15.1,25,15.1,25,15,25C15,25,15,25,15,25z"/>
</g>
<g>
	<path fill="#FFFFFF" d="M15.1,25C15.1,25,15.1,25,15.1,25C15.1,25,15.1,25,15.1,25z"/>
	<path fill="#FFFFFF" d="M15,25C15,25,15,25,15,25C15,25,15,25,15,25C15,25,15,25,15,25z"/>
</g>
<g>
	<path fill="#DADDE0" d="M15,25C15,25,15,25,15,25C15,25,15,25,15,25C15,25,15,25,15,25z"/>
	<path fill="#DADDE0" d="M14.9,24.9C14.9,24.9,14.9,25,14.9,24.9C14.9,25,14.9,25,14.9,24.9C14.9,25,14.9,24.9,14.9,24.9
		C14.9,24.9,14.9,24.9,14.9,24.9z"/>
</g>
<g>
	<path fill="#FFFFFF" d="M14.9,25C14.9,25,14.9,25,14.9,25C14.9,25,14.9,25,14.9,25z"/>
	<path fill="#FFFFFF" d="M14.9,24.9C14.9,24.9,14.9,24.9,14.9,24.9C14.9,24.9,14.9,24.9,14.9,24.9C14.9,24.9,14.9,24.9,14.9,24.9z"
		/>
</g>
<path fill="#DADDE0" d="M14.9,24.9C14.9,24.9,14.9,24.9,14.9,24.9C14.8,24.9,14.8,24.9,14.9,24.9L14.9,24.9
	C14.9,24.9,14.9,24.9,14.9,24.9z"/>
<path fill="#D1D1D1" d="M14.8,22.7l0.1,2.3c0,0,0,0-0.1,0V22.7z"/>
<polygon fill="#DADDE0" points="14.8,19.9 14.8,22.7 14.7,19.9 "/>
<path fill="#ADBCC9" d="M23.9,12.4L15.4,20c-0.1,0.1-0.1,0.2-0.2,0.3L15,24.9c0,0.1-0.1,0.1-0.2,0l-1.4-6c-0.1-0.2,0-0.4,0.2-0.5
	l10-6.2C23.9,11.9,24.1,12.3,23.9,12.4z"/>
</svg>
