<?xml version="1.0" encoding="utf-8"?>
<!-- Generator: Adobe Illustrator 23.0.2, SVG Export Plug-In . SVG Version: 6.00 Build 0)  -->
<svg version="1.1" id="Capa_1" xmlns="http://www.w3.org/2000/svg" xmlns:xlink="http://www.w3.org/1999/xlink" x="0px" y="0px"
	 viewBox="0 0 58.9 59" enable-background="new 0 0 58.9 59" xml:space="preserve">
<g>
	<g>
		<g>
			<path fill="#333333" d="M54,8.9H37.3c0.4-3-1-6-3.6-7.7c-2.6-1.6-5.9-1.6-8.5,0s-4,4.6-3.6,7.7H4.9C2.2,8.9,0,11.1,0,13.8v32.4
				c0,2.7,2.2,4.9,4.9,4.9h15.7v2h-6.9c-0.3,0-0.5,0.1-0.7,0.3c-0.2,0.2-0.3,0.4-0.3,0.7V58c0,0.3,0.1,0.5,0.3,0.7
				c0.2,0.2,0.4,0.3,0.7,0.3h31.4c0.3,0,0.5-0.1,0.7-0.3c0.2-0.2,0.3-0.4,0.3-0.7v-3.9c0-0.3-0.1-0.5-0.3-0.7s-0.4-0.3-0.7-0.3h-6.9
				v-2H54c2.7,0,4.9-2.2,4.9-4.9V13.8C58.9,11.1,56.7,8.9,54,8.9z M29.5,2c3.3,0,5.9,2.6,5.9,5.9s-2.6,5.9-5.9,5.9
				c-3.3,0-5.9-2.6-5.9-5.9C23.6,4.7,26.2,2,29.5,2z M37.3,23.6H21.6c0-4.3,3.5-7.9,7.9-7.9C33.8,15.8,37.3,19.3,37.3,23.6z
				 M44.2,55.1v2H14.7v-2H44.2z M22.6,53.1v-2h13.8v2H22.6z M57,46.2c0,1.6-1.3,2.9-2.9,2.9H4.9c-1.6,0-2.9-1.3-2.9-2.9v-2.9h55
				L57,46.2L57,46.2z M57,41.3H2V13.8c0-1.6,1.3-2.9,2.9-2.9h17.3c0.7,1.6,1.8,2.9,3.3,3.8c-3.5,1.6-5.8,5.1-5.8,9h-2
				c-0.5,0-1,0.4-1,1c0,0.5,0.4,1,1,1h23.6c0.5,0,1-0.4,1-1c0-0.5-0.4-1-1-1h-2c0-3.9-2.3-7.4-5.8-9c1.5-0.9,2.6-2.2,3.3-3.8H54
				c1.6,0,2.9,1.3,2.9,2.9L57,41.3L57,41.3z"/>
			<path fill="#333333" d="M35,31.3l-3.2-0.4l-1.4-2.8c-0.2-0.3-0.5-0.5-0.9-0.5c-0.4,0-0.7,0.2-0.9,0.5l-1.4,2.8l-3.2,0.4
				c-0.4,0.1-0.7,0.3-0.8,0.7c-0.1,0.4,0,0.8,0.3,1l2.3,2.2l-0.5,3c-0.1,0.4,0.1,0.7,0.4,1s0.7,0.3,1,0.1l2.9-1.5l2.9,1.5
				c0.3,0.2,0.7,0.1,1-0.1s0.4-0.6,0.4-1l-0.5-3l2.3-2.2c0.3-0.3,0.4-0.7,0.3-1C35.7,31.6,35.4,31.4,35,31.3z M31.5,34.1
				c-0.2,0.2-0.4,0.6-0.3,0.9l0.3,1.6l-1.6-0.8c-0.3-0.1-0.6-0.1-0.9,0l-1.6,0.8l0.3-1.6c0.1-0.3-0.1-0.7-0.3-0.9L26.3,33l1.7-0.2
				c0.3,0,0.6-0.2,0.7-0.5l0.8-1.5l0.8,1.5c0.1,0.3,0.4,0.5,0.7,0.5l1.7,0.2L31.5,34.1z"/>
			<path fill="#333333" d="M19.8,31.3l-3.2-0.4l-1.4-2.8c-0.2-0.3-0.5-0.5-0.9-0.5c-0.4,0-0.7,0.2-0.9,0.5l-1.4,2.8l-3.2,0.4
				C8.3,31.4,8,31.6,7.9,32c-0.1,0.4,0,0.8,0.3,1l2.3,2.2l-0.5,3c-0.1,0.4,0.1,0.7,0.4,1c0.3,0.2,0.7,0.3,1,0.1l2.9-1.5l2.9,1.5
				c0.3,0.2,0.7,0.1,1-0.1s0.4-0.6,0.4-1l-0.5-3l2.3-2.2c0.3-0.3,0.4-0.7,0.3-1C20.5,31.6,20.2,31.4,19.8,31.3z M16.3,34.1
				C16,34.3,15.9,34.7,16,35l0.3,1.6l-1.6-0.8c-0.3-0.1-0.6-0.1-0.9,0l-1.6,0.8l0.3-1.6c0.1-0.3-0.1-0.7-0.3-0.9L11,33l1.7-0.2
				c0.3,0,0.6-0.2,0.7-0.5l0.8-1.5l0.8,1.5c0.1,0.3,0.4,0.5,0.7,0.5l1.7,0.2L16.3,34.1z"/>
			<path fill="#333333" d="M50.2,31.3L47,30.9l-1.4-2.8c-0.2-0.3-0.5-0.5-0.9-0.5c-0.4,0-0.7,0.2-0.9,0.5l-1.4,2.8l-3.2,0.4
				c-0.4,0.1-0.7,0.3-0.8,0.7c-0.1,0.4,0,0.8,0.3,1l2.3,2.2l-0.5,3c-0.1,0.4,0.1,0.7,0.4,1c0.3,0.2,0.7,0.3,1,0.1l2.9-1.5l2.9,1.5
				c0.3,0.2,0.7,0.1,1-0.1s0.4-0.6,0.4-1l-0.5-3l2.3-2.2c0.3-0.3,0.4-0.7,0.3-1C50.9,31.6,50.6,31.4,50.2,31.3z M46.7,34.1
				c-0.2,0.2-0.4,0.6-0.3,0.9l0.3,1.6l-1.6-0.8c-0.3-0.1-0.6-0.1-0.9,0l-1.6,0.8L43,35c0.1-0.3-0.1-0.7-0.3-0.9L41.5,33l1.7-0.2
				c0.3,0,0.6-0.2,0.7-0.5l0.8-1.5l0.8,1.5c0.1,0.3,0.4,0.5,0.7,0.5l1.7,0.2L46.7,34.1z"/>
		</g>
	</g>
</g>
</svg>
