<?xml version="1.0" encoding="utf-8"?>
<!-- Generator: Adobe Illustrator 23.0.2, SVG Export Plug-In . SVG Version: 6.00 Build 0)  -->
<svg version="1.1" id="Layer_1" xmlns="http://www.w3.org/2000/svg" xmlns:xlink="http://www.w3.org/1999/xlink" x="0px" y="0px"
	 viewBox="0 0 40 40" enable-background="new 0 0 40 40" xml:space="preserve">
<circle fill="#6F3FAA" cx="20" cy="20" r="20"/>
<g>
	<path fill="#FFFFFF" d="M30.6,14.1L30.6,14.1c-0.5-2.2-3-4.5-5.2-5l0,0c-3.6-0.7-7.2-0.7-10.8,0l0,0c-2.2,0.5-4.6,2.8-5.2,5l0,0
		c-0.7,3-0.7,6.1,0,9.1l0,0c0.5,2.1,2.7,4.3,4.9,4.9v2.4c0,0.9,1.1,1.3,1.7,0.7l2.4-2.5c0.5,0,1.1,0,1.6,0c1.8,0,3.6-0.2,5.4-0.5
		l0,0c2.2-0.5,4.6-2.8,5.2-5l0,0C31.2,20.1,31.2,17.1,30.6,14.1z M28.6,22.7c-0.4,1.4-2.2,3.2-3.6,3.5c-1.9,0.4-3.8,0.5-5.7,0.5
		c0,0-0.1,0-0.1,0c-0.3,0.3-1.8,1.8-1.8,1.8l-1.9,1.9c-0.1,0.1-0.4,0-0.4-0.2v-4c0-0.1,0-0.1-0.1-0.1l0,0c-1.5-0.3-3.3-2.1-3.6-3.5
		c-0.6-2.7-0.6-5.5,0-8.2c0.4-1.4,2.2-3.2,3.6-3.5c3.3-0.6,6.7-0.6,10,0c1.5,0.3,3.3,2.1,3.6,3.5C29.2,17.2,29.2,20,28.6,22.7z"/>
	<path fill="#FFFFFF" d="M23.2,24.6c-0.2-0.1-0.4-0.1-0.6-0.2c-2-0.9-3.9-1.9-5.4-3.6c-0.8-1-1.5-2-2.1-3.2
		c-0.3-0.5-0.5-1.1-0.7-1.7c-0.2-0.5,0.1-1,0.4-1.4c0.3-0.4,0.7-0.6,1.1-0.8c0.3-0.2,0.7-0.1,0.9,0.2c0.5,0.6,1,1.2,1.4,1.9
		c0.2,0.4,0.2,1-0.3,1.3c-0.1,0.1-0.2,0.2-0.3,0.2c-0.1,0.1-0.2,0.1-0.2,0.2c-0.1,0.2-0.1,0.4,0,0.6c0.5,1.5,1.4,2.6,2.9,3.2
		c0.2,0.1,0.5,0.2,0.7,0.2c0.5-0.1,0.6-0.6,0.9-0.8c0.3-0.3,0.7-0.3,1,0c0.3,0.2,0.7,0.4,1,0.7c0.3,0.2,0.6,0.4,0.9,0.7
		c0.3,0.2,0.4,0.6,0.2,0.9c-0.3,0.6-0.7,1.1-1.3,1.5C23.6,24.5,23.4,24.5,23.2,24.6C22.9,24.5,23.4,24.5,23.2,24.6z"/>
	<path fill="#FFFFFF" d="M20,12.9c2.7,0.1,4.9,1.9,5.4,4.5c0.1,0.5,0.1,0.9,0.1,1.4c0,0.2-0.1,0.4-0.3,0.4c-0.2,0-0.3-0.2-0.3-0.4
		c0-0.4,0-0.8-0.1-1.1c-0.3-2-1.9-3.6-3.9-4c-0.3-0.1-0.6-0.1-0.9-0.1c-0.2,0-0.4,0-0.5-0.3c0-0.2,0.1-0.4,0.3-0.4
		C19.9,12.9,20,12.9,20,12.9C22.7,13,20,12.9,20,12.9z"/>
	<path fill="#FFFFFF" d="M24.1,18.2c0,0,0,0.1,0,0.2c-0.1,0.3-0.5,0.3-0.6,0c0-0.1,0-0.2,0-0.3c0-0.6-0.1-1.1-0.4-1.6
		c-0.3-0.5-0.7-0.9-1.3-1.2c-0.3-0.2-0.7-0.3-1-0.3c-0.2,0-0.3,0-0.5-0.1c-0.2,0-0.3-0.1-0.3-0.3c0-0.2,0.1-0.3,0.3-0.3
		c0.6,0,1.2,0.2,1.8,0.5c1.1,0.6,1.7,1.5,1.9,2.8c0,0.1,0,0.1,0,0.2C24.1,17.9,24.1,18,24.1,18.2C24.1,18.2,24.1,18,24.1,18.2z"/>
	<path fill="#FFFFFF" d="M22.4,18.1c-0.2,0-0.3-0.1-0.4-0.3c0-0.1,0-0.3-0.1-0.4c-0.1-0.3-0.2-0.5-0.4-0.7c-0.1-0.1-0.2-0.1-0.4-0.2
		c-0.2,0-0.3,0-0.5-0.1c-0.2,0-0.3-0.2-0.2-0.4c0-0.2,0.2-0.3,0.3-0.3c1,0.1,1.8,0.6,1.9,1.8c0,0.1,0,0.2,0,0.3
		C22.6,18.1,22.5,18.1,22.4,18.1C22.2,18.1,22.5,18.1,22.4,18.1z"/>
</g>
<path fill="#FFFFFF" d="M23.2,24.6C23.4,24.5,22.9,24.5,23.2,24.6L23.2,24.6z"/>
<g>
	<path fill="#FFFFFF" d="M20,12.9C20,12.9,20,12.9,20,12.9C20,12.9,20,12.9,20,12.9z"/>
	<path fill="#FFFFFF" d="M20,12.9C20,12.9,20,12.9,20,12.9C20.2,12.9,22.6,13,20,12.9z"/>
</g>
<g>
	<path fill="#FFFFFF" d="M24.1,18.2C24.1,18,24.1,18.2,24.1,18.2L24.1,18.2z"/>
	<path fill="#FFFFFF" d="M22.4,18.1C22.4,18.1,22.4,18.1,22.4,18.1C22.4,18.1,22.4,18.1,22.4,18.1C22.4,18.1,22.4,18.1,22.4,18.1z"
		/>
	<path fill="#FFFFFF" d="M22.4,18.1C22.4,18.1,22.4,18.1,22.4,18.1C22.3,18.1,22.3,18.1,22.4,18.1z"/>
	<path fill="#FFFFFF" d="M22.4,18.1C22.4,18.1,22.4,18.1,22.4,18.1C22.4,18.1,22.4,18.1,22.4,18.1z"/>
</g>
</svg>
