<?xml version="1.0" encoding="utf-8"?>
<!-- Generator: Adobe Illustrator 23.0.2, SVG Export Plug-In . SVG Version: 6.00 Build 0)  -->
<svg version="1.1" id="Layer_1" xmlns="http://www.w3.org/2000/svg" xmlns:xlink="http://www.w3.org/1999/xlink" x="0px" y="0px"
	 viewBox="0 0 40 40" enable-background="new 0 0 40 40" xml:space="preserve">
<circle fill="#75B73B" cx="20" cy="20" r="20"/>
<g>
	<path fill="#FFFFFF" d="M19.4,8.5C13.3,8.8,8.5,13.8,8.6,19.9c0,1.9,0.5,3.6,1.2,5.2L8.6,31c-0.1,0.3,0.2,0.6,0.5,0.5l5.8-1.4
		c1.5,0.7,3.2,1.2,4.9,1.2c6.2,0.1,11.4-4.9,11.6-11.1C31.7,13.6,26.1,8.2,19.4,8.5L19.4,8.5z M26.3,26.2c-1.7,1.7-3.9,2.6-6.3,2.6
		c-1.4,0-2.7-0.3-4-0.9l-0.8-0.4l-3.5,0.8l0.7-3.6L12,24c-0.6-1.3-1-2.6-1-4.1c0-2.4,0.9-4.6,2.6-6.3c1.7-1.7,4-2.6,6.3-2.6
		c2.4,0,4.6,0.9,6.3,2.6c1.7,1.7,2.6,3.9,2.6,6.3C29,22.3,28,24.6,26.3,26.2L26.3,26.2z"/>
	<path fill="#FFFFFF" d="M25.6,22.4l-2.2-0.6c-0.3-0.1-0.6,0-0.8,0.2L22,22.5c-0.2,0.2-0.6,0.3-0.9,0.2c-1-0.4-3.3-2.4-3.8-3.4
		c-0.2-0.3-0.1-0.6,0.1-0.9l0.5-0.6c0.2-0.2,0.2-0.6,0.1-0.8L17,14.9c-0.2-0.5-0.9-0.7-1.3-0.3c-0.6,0.5-1.4,1.3-1.4,2.2
		c-0.2,1.6,0.5,3.5,3,5.9c2.9,2.7,5.2,3.1,6.8,2.7c0.9-0.2,1.5-1,2-1.7C26.3,23.2,26.1,22.5,25.6,22.4L25.6,22.4z"/>
</g>
</svg>
